<svg width="26" height="22" viewBox="0 0 26 22" fill="none" xmlns="http://www.w3.org/2000/svg">
<path d="M19.1625 0.000248112C20.0612 -0.00736649 20.9528 0.160351 21.785 0.494779C22.6174 0.829263 23.3742 1.32376 24.0111 1.94934C24.648 2.57487 25.1522 3.31933 25.4939 4.1394C25.8355 4.95963 26.0076 5.83948 25.9997 6.72626C25.9919 7.61293 25.8044 8.4893 25.4483 9.30343C25.0936 10.1144 24.5779 10.8465 23.9336 11.4596L13.3788 21.8293C13.1471 22.0569 12.7751 22.0569 12.5434 21.8293L1.98768 11.4606C0.715767 10.211 4.19184e-05 8.51398 0 6.74271C0 4.97145 0.715827 3.27447 1.98768 2.02482C3.25961 0.775959 4.9828 0.075829 6.77711 0.0757343C8.57151 0.0757343 10.2945 0.775912 11.5665 2.02482L12.9611 3.39229L14.3479 2.0316C14.9738 1.39521 15.7224 0.888916 16.5488 0.540264C17.3752 0.19163 18.2638 0.00791857 19.1625 0.000248112ZM1.19009 6.74271C1.19013 8.19224 1.77652 9.58464 2.82307 10.6128L12.9611 20.5712L23.0991 10.6128L23.1069 10.6051C23.6401 10.0992 24.0651 9.49491 24.3571 8.82729C24.6491 8.15959 24.8022 7.44163 24.8087 6.71561C24.8151 5.98953 24.675 5.26878 24.3949 4.59619C24.1147 3.92362 23.6999 3.31197 23.1757 2.79711C22.6515 2.2823 22.0276 1.87427 21.3402 1.59804C20.6527 1.3218 19.9156 1.18329 19.1722 1.18964C18.429 1.19599 17.6945 1.34693 17.0121 1.63481C16.3296 1.92273 15.7128 2.3412 15.1979 2.86485L15.1901 2.87259L13.3788 4.65039C13.1471 4.87772 12.7751 4.87772 12.5434 4.65039L10.7321 2.87259C9.68488 1.84435 8.26208 1.26512 6.77711 1.26512C5.38512 1.26521 4.04816 1.77409 3.02368 2.68484L2.82307 2.87259C1.77655 3.90081 1.19009 5.29317 1.19009 6.74271Z" fill="#060606"/>
</svg>
