<svg width="22" height="13" viewBox="0 0 22 13" fill="none" xmlns="http://www.w3.org/2000/svg">
<path d="M3.89412 0.722217C3.89412 0.323347 4.23772 0 4.66157 0C5.0854 1.20796e-05 5.42901 0.323355 5.42901 0.722217V10.6207L8.18201 8.21616C8.49263 7.94476 8.97884 7.96147 9.26723 8.25377C9.55548 8.54608 9.53682 9.00368 9.22626 9.27503L5.18419 12.8071C4.8857 13.0679 4.42222 13.0637 4.12895 12.7977L0.234774 9.26563C-0.0703276 8.98887 -0.0791792 8.53156 0.214788 8.24437C0.508936 7.95719 0.994839 7.94875 1.3 8.22556L3.89412 10.5784V0.722217ZM16.2282 9.87688C16.652 9.87688 16.9956 10.2002 16.9956 10.5991C16.9956 10.998 16.652 11.3213 16.2282 11.3213H12.4749C12.0511 11.3213 11.7075 10.9979 11.7075 10.5991C11.7075 10.2003 12.0511 9.87691 12.4749 9.87688H16.2282ZM18.7304 5.24077C19.1542 5.24077 19.4978 5.56412 19.4978 5.96299C19.4977 6.36173 19.1541 6.68521 18.7304 6.68521H12.4749C12.0512 6.68518 11.7076 6.36171 11.7075 5.96299C11.7075 5.56414 12.0511 5.24081 12.4749 5.24077H18.7304ZM21.2326 0.603728C21.6563 0.603728 21.9998 0.927237 22 1.32595C22 1.72481 21.6564 2.04816 21.2326 2.04816H12.4749C12.0511 2.04813 11.7075 1.72479 11.7075 1.32595C11.7077 0.927257 12.0512 0.60376 12.4749 0.603728H21.2326Z" fill="#00B8F4"/>
</svg>
