<svg width="19" height="15" viewBox="0 0 19 15" fill="none" xmlns="http://www.w3.org/2000/svg">
<path d="M8.62532 0.0715013C8.81796 -0.0330512 9.05187 -0.022202 9.23417 0.0998225L18.7341 6.45842C18.8964 6.56707 18.9958 6.75 18.9999 6.94671C19.0039 7.14325 18.9128 7.32934 18.7554 7.44477L9.25447 14.4059C9.07391 14.5381 8.83557 14.557 8.63692 14.4548C8.43821 14.3523 8.31232 14.146 8.3122 13.9206V10.7554C6.36673 10.6809 4.63574 11.5615 3.32449 12.5553C2.61663 13.0918 2.04829 13.6481 1.65742 14.07C1.46258 14.2803 1.31276 14.456 1.21286 14.5778C1.16304 14.6385 1.12602 14.6862 1.10172 14.7175C1.08964 14.733 1.08017 14.7444 1.07466 14.7516C1.07191 14.7553 1.06886 14.7595 1.06886 14.7595C0.915567 14.966 0.648297 15.051 0.405898 14.9694C0.163436 14.8877 0 14.6583 0 14.4001V14.3669C0.000305746 14.3476 0.000807172 14.3202 0.00193285 14.2858C0.00419039 14.2169 0.00873648 14.1182 0.0173956 13.9938C0.0347118 13.7451 0.069159 13.392 0.137232 12.9645C0.273144 12.111 0.544676 10.9507 1.09109 9.72805C2.15126 7.35587 4.24533 4.75801 8.3122 3.72396V0.599838C8.3122 0.378938 8.43279 0.176081 8.62532 0.0715013ZM9.49994 4.19956C9.49994 4.48233 9.30475 4.72703 9.03122 4.78649C5.09512 5.6388 3.15147 8.03392 2.17349 10.2222C1.78488 11.0918 1.54933 11.9304 1.40615 12.6275C1.74832 12.3005 2.15206 11.9441 2.61224 11.5953C4.15407 10.4268 6.38649 9.27741 8.98 9.605C9.277 9.64253 9.49975 9.89732 9.49994 10.1997V12.7438L17.3647 6.98089L9.49994 1.71608V4.19956Z" fill="#060606"/>
</svg>
