<svg width="17" height="17" viewBox="0 0 17 17" fill="none" xmlns="http://www.w3.org/2000/svg">
<path d="M13.387 16.4983C13.2677 16.4988 13.1513 16.4613 13.0544 16.3912L8.49911 13.0616L3.94385 16.3912C3.84653 16.4623 3.72929 16.5004 3.60906 16.5C3.48884 16.4996 3.37187 16.4606 3.27507 16.3887C3.17826 16.3168 3.10664 16.2158 3.07055 16.1002C3.03446 15.9845 3.03578 15.8603 3.07431 15.7455L4.85094 10.4402L0.246445 7.25673C0.146709 7.18785 0.0714334 7.08862 0.0316176 6.97354C-0.00819815 6.85846 -0.0104677 6.73356 0.0251406 6.61708C0.0607489 6.50061 0.132369 6.39866 0.229536 6.32615C0.326704 6.25363 0.444326 6.21434 0.565218 6.21402H6.24575L7.96004 0.895132C7.99696 0.780299 8.06902 0.68021 8.16587 0.609223C8.26272 0.538236 8.37938 0.5 8.49911 0.5C8.61885 0.5 8.73551 0.538236 8.83236 0.609223C8.92921 0.68021 9.00127 0.780299 9.0382 0.895132L10.7525 6.21581H16.433C16.5541 6.21575 16.6719 6.25476 16.7694 6.32714C16.8669 6.39952 16.9388 6.50145 16.9746 6.61801C17.0104 6.73458 17.0083 6.85965 16.9685 6.97491C16.9288 7.09016 16.8534 7.18955 16.7536 7.25852L12.1473 10.4402L13.9229 15.7441C13.9516 15.83 13.9597 15.9215 13.9465 16.0112C13.9332 16.1008 13.899 16.186 13.8466 16.2597C13.7943 16.3333 13.7253 16.3934 13.6454 16.4349C13.5654 16.4764 13.4769 16.4981 13.387 16.4983Z" fill="#060606"/>
</svg>
