<svg width="19" height="19" viewBox="0 0 19 19" fill="none" xmlns="http://www.w3.org/2000/svg">
<path d="M12.4901 0.527847C13.1939 -0.175949 14.3357 -0.175949 15.0395 0.527847L18.4722 3.96054C19.1759 4.66433 19.1759 5.80613 18.4722 6.50993L6.50993 18.4722C5.80613 19.1759 4.66433 19.1759 3.96054 18.4722L0.527847 15.0395C-0.175949 14.3357 -0.175949 13.1939 0.527847 12.4901L12.4901 0.527847ZM14.1997 1.36766C13.9596 1.12762 13.5699 1.12762 13.3299 1.36766L1.36766 13.3299C1.12762 13.5699 1.12762 13.9596 1.36766 14.1997L4.80035 17.6323C5.04038 17.8724 5.43008 17.8724 5.67012 17.6323L7.65996 15.6415C7.48961 15.6579 7.31397 15.6038 7.18351 15.4734L5.4749 13.7648C5.24302 13.5329 5.24302 13.1568 5.4749 12.925C5.70671 12.6935 6.08194 12.6935 6.31375 12.925L8.02333 14.6336C8.15362 14.7639 8.20762 14.9399 8.19148 15.11L10.2229 13.0786C10.0527 13.0948 9.87674 13.0408 9.74644 12.9105L8.03782 11.2009C7.80631 10.9691 7.80628 10.5938 8.03782 10.362C8.2697 10.1302 8.64575 10.1302 8.87763 10.362L10.5862 12.0707C10.7167 12.2011 10.7707 12.3768 10.7544 12.5471L12.7868 10.5147C12.6164 10.531 12.4408 10.477 12.3103 10.3466L10.6017 8.63796C10.3698 8.40608 10.3698 8.03003 10.6017 7.79815C10.8336 7.56648 11.2097 7.56634 11.4415 7.79815L13.1501 9.50677C13.2805 9.63708 13.3344 9.81303 13.3183 9.98321L15.3506 7.95085C15.1803 7.96729 15.0047 7.91397 14.8742 7.78366L13.1646 6.07408C12.9331 5.84228 12.9332 5.46704 13.1646 5.23523C13.3965 5.00335 13.7726 5.00335 14.0044 5.23523L15.7131 6.94384C15.8435 7.07431 15.8976 7.24993 15.8812 7.42029L17.6323 5.67012C17.8724 5.43008 17.8724 5.04038 17.6323 4.80035L14.1997 1.36766Z" fill="#060606"/>
</svg>
