<svg width="25" height="25" viewBox="0 0 25 25" fill="none" xmlns="http://www.w3.org/2000/svg">
<path d="M23.7963 16.8075L17.9075 14.1687L17.8913 14.1612C17.5856 14.0305 17.2521 13.978 16.921 14.0086C16.5899 14.0391 16.2716 14.1518 15.995 14.3362C15.9624 14.3578 15.9311 14.3811 15.9013 14.4062L12.8588 17C10.9313 16.0637 8.94126 14.0887 8.00501 12.1862L10.6025 9.0975C10.6275 9.06625 10.6513 9.035 10.6738 9.00125C10.8543 8.72538 10.9638 8.40915 10.9926 8.08072C11.0214 7.75228 10.9686 7.42182 10.8388 7.11875V7.10375L8.19251 1.205C8.02094 0.80908 7.72592 0.479268 7.35149 0.264797C6.97707 0.0503262 6.54333 -0.0373 6.11501 0.0149988C4.42122 0.237882 2.86649 1.06971 1.74118 2.35512C0.61587 3.64053 -0.00305116 5.29161 1.13108e-05 7C1.13108e-05 16.925 8.07501 25 18 25C19.7084 25.0031 21.3595 24.3841 22.6449 23.2588C23.9303 22.1335 24.7621 20.5788 24.985 18.885C25.0374 18.4568 24.95 18.0232 24.7357 17.6488C24.5215 17.2744 24.1919 16.9793 23.7963 16.8075ZM18 23C13.758 22.9954 9.691 21.3082 6.69142 18.3086C3.69184 15.309 2.00464 11.242 2.00001 7C1.99531 5.77936 2.43507 4.59874 3.23718 3.67863C4.03929 2.75852 5.14889 2.16183 6.35876 2C6.35827 2.00499 6.35827 2.01001 6.35876 2.015L8.98376 7.89L6.40001 10.9825C6.37379 11.0127 6.34996 11.0449 6.32876 11.0787C6.14066 11.3674 6.0303 11.6997 6.0084 12.0436C5.9865 12.3874 6.0538 12.7311 6.20376 13.0412C7.33626 15.3575 9.67001 17.6737 12.0113 18.805C12.3237 18.9536 12.6694 19.0185 13.0144 18.9935C13.3595 18.9686 13.6922 18.8545 13.98 18.6625C14.0121 18.6409 14.043 18.6175 14.0725 18.5925L17.1113 16L22.9863 18.6312C22.9863 18.6312 22.9963 18.6312 23 18.6312C22.8402 19.8428 22.2444 20.9547 21.3241 21.7588C20.4038 22.5629 19.2221 23.0041 18 23Z" fill="black"/>
</svg>
