<svg width="20" height="11" viewBox="0 0 20 11" fill="none" xmlns="http://www.w3.org/2000/svg">
<path fill-rule="evenodd" clip-rule="evenodd" d="M10.9808 10.4582C10.9808 10.4582 11.3418 10.4231 11.5267 10.249C11.6959 10.0896 11.69 9.78864 11.69 9.78864C11.69 9.78864 11.6675 8.38349 12.4119 8.17602C13.1456 7.97198 14.0876 9.53487 15.0873 10.1359C15.8425 10.5902 16.4157 10.4908 16.4157 10.4908L19.0872 10.4582C19.0872 10.4582 20.4841 10.3828 19.8218 9.41999C19.767 9.34111 19.4354 8.70756 17.8361 7.40614C16.1604 6.04386 16.3854 6.26419 18.4024 3.90742C19.6311 2.47227 20.1221 1.59609 19.9685 1.22144C19.8228 0.863077 18.9189 0.958239 18.9189 0.958239L15.9119 0.974528C15.9119 0.974528 15.6889 0.947951 15.5236 1.03454C15.3622 1.11942 15.2575 1.31746 15.2575 1.31746C15.2575 1.31746 14.7821 2.42769 14.1473 3.37245C12.8081 5.36486 12.273 5.47031 12.0539 5.34686C11.5443 5.05794 11.6714 4.18776 11.6714 3.56964C11.6714 1.63809 12.006 0.833071 11.0209 0.624742C10.6942 0.555299 10.4536 0.509861 9.61722 0.502145C8.54413 0.492715 7.63636 0.505574 7.12183 0.725906C6.77946 0.872507 6.51534 1.2 6.67675 1.21886C6.87532 1.24201 7.32529 1.32517 7.56397 1.6098C7.87211 1.97759 7.86135 2.80233 7.86135 2.80233C7.86135 2.80233 8.0384 5.07595 7.44757 5.35801C7.04259 5.55176 6.48698 5.15654 5.29259 3.34845C4.68122 2.42254 4.21951 1.3989 4.21951 1.3989C4.21951 1.3989 4.13049 1.20772 3.97104 1.10484C3.77834 0.98053 3.50933 0.94195 3.50933 0.94195L0.652008 0.958239C0.652008 0.958239 0.222578 0.968527 0.0650879 1.13228C-0.0747948 1.27716 0.0543277 1.57808 0.0543277 1.57808C0.0543277 1.57808 2.29147 6.1656 4.82501 8.47779C7.14824 10.5971 9.78547 10.4582 9.78547 10.4582H10.9808Z" fill="#060606"/>
</svg>
