<svg width="26" height="22" viewBox="0 0 26 22" fill="none" xmlns="http://www.w3.org/2000/svg">
<path d="M13 15.6444C19.5284 15.6444 23.8864 17.7837 25.9126 21.0959C26.084 21.3762 25.9955 21.7416 25.7149 21.9128C25.4343 22.0839 25.0684 21.9955 24.897 21.7153C23.1704 18.8931 19.3035 16.8338 13 16.8338C6.69653 16.8338 2.82957 18.8931 1.10301 21.7153C0.931589 21.9955 0.56568 22.0839 0.285066 21.9128C0.00446846 21.7416 -0.0840039 21.3762 0.0873641 21.0959C2.11361 17.7837 6.47158 15.6444 13 15.6444ZM17.5016 5.589C17.5016 3.16937 15.4965 1.18845 13 1.18845C10.5035 1.18845 8.49841 3.16937 8.49841 5.589C8.49843 8.00862 10.5035 9.98955 13 9.98955C15.4965 9.98955 17.5016 8.00862 17.5016 5.589ZM18.6917 5.589C18.6917 8.68638 16.133 11.178 13 11.178C9.86702 11.178 7.30834 8.68638 7.30832 5.589C7.30832 2.4916 9.86701 0 13 0C16.133 0 18.6917 2.4916 18.6917 5.589Z" fill="#060606"/>
</svg>
