<svg width="18" height="16" viewBox="0 0 18 16" fill="none" xmlns="http://www.w3.org/2000/svg">
<path fill-rule="evenodd" clip-rule="evenodd" d="M8.83301 0C9.07849 0 9.29605 0.159387 9.37192 0.394808L11.0863 5.71429H16.7663C17.0146 5.71429 17.234 5.87735 17.3076 6.11655C17.3811 6.35576 17.2916 6.61536 17.0868 6.75699L12.482 9.94111L14.2574 15.2458C14.3362 15.4814 14.255 15.7413 14.0564 15.8887C13.8579 16.0361 13.5876 16.0372 13.388 15.8913L8.83301 12.5628L4.27804 15.8913C4.07839 16.0372 3.80812 16.0361 3.60958 15.8887C3.41103 15.7413 3.32978 15.4814 3.40862 15.2458L5.18404 9.94111L0.57925 6.75699C0.374435 6.61536 0.284932 6.35576 0.358449 6.11655C0.431967 5.87735 0.651372 5.71429 0.899714 5.71429H6.57968L8.29409 0.394808C8.36997 0.159387 8.58753 0 8.83301 0ZM8.83301 2.4202L7.53027 6.46234C7.45439 6.69776 7.23683 6.85714 6.99135 6.85714H2.72811L6.17849 9.24301C6.38762 9.38762 6.47602 9.65473 6.39493 9.89702L5.04986 13.9159L8.5005 11.3944C8.69887 11.2495 8.96715 11.2495 9.16551 11.3944L12.6162 13.9159L11.2711 9.89702C11.19 9.65473 11.2784 9.38762 11.4875 9.24301L14.9379 6.85714H10.6747C10.4292 6.85714 10.2116 6.69776 10.1357 6.46234L8.83301 2.4202Z" fill="#060606"/>
</svg>
