<svg width="24" height="24" viewBox="0 0 24 24" fill="none" xmlns="http://www.w3.org/2000/svg">
<path d="M20.4234 11.3059C20.4233 6.27067 16.3412 2.18844 11.3059 2.18844C6.27073 2.18854 2.18854 6.27073 2.18844 11.3059C2.18844 16.3412 6.27067 20.4233 11.3059 20.4234C16.3413 20.4234 20.4234 16.3413 20.4234 11.3059ZM21.6128 11.3059C21.6128 13.9703 20.601 16.3981 18.9417 18.2275L22.8187 21.9777C23.0546 22.2059 23.0612 22.5826 22.8332 22.8187C22.6049 23.0546 22.2282 23.0612 21.9922 22.8332L18.091 19.0598C16.278 20.6476 13.9054 21.6128 11.3059 21.6128C5.61389 21.6127 1 16.998 1 11.3059C1.0001 5.61395 5.61395 1.0001 11.3059 1C16.998 1 21.6127 5.61389 21.6128 11.3059Z" fill="#060606"/>
</svg>
