<svg width="24" height="22" viewBox="0 0 24 22" fill="none" xmlns="http://www.w3.org/2000/svg">
<path d="M18.8688 0C20.6874 0 22.2027 1.41079 22.2276 3.20728L23.9961 18.6805C23.9987 18.7029 24 18.7257 24 18.7482C23.9998 20.5659 22.4738 22 20.6402 22H3.35981C1.52618 22 0.000178818 20.5659 0 18.7482C0 18.73 0.000271983 18.7111 0.00193705 18.693L1.42663 3.20728C1.45149 1.41079 2.96684 0 4.78547 0H18.8688ZM4.78547 1.18846C3.56527 1.18846 2.61519 2.13392 2.61501 3.2518C2.61501 3.26998 2.61474 3.28887 2.61308 3.30697L1.19031 18.7685C1.20192 19.8775 2.14701 20.8115 3.35981 20.8115H20.6402C21.8526 20.8115 22.7966 19.878 22.8087 18.7695L21.0431 3.31955C21.0405 3.29715 21.0392 3.27434 21.0392 3.2518C21.039 2.13392 20.089 1.18846 18.8688 1.18846H4.78547ZM7.12833 6.74362C7.12833 6.41522 7.39436 6.14843 7.723 6.14843C8.05165 6.14843 8.31768 6.41522 8.31768 6.74362C8.31789 8.7176 9.9554 10.338 12 10.338C14.0446 10.338 15.6821 8.7176 15.6823 6.74362C15.6823 6.41522 15.9484 6.14843 16.277 6.14843C16.6056 6.14843 16.8717 6.41522 16.8717 6.74362C16.8715 9.39666 14.6794 11.5275 12 11.5275C9.32062 11.5275 7.12854 9.39666 7.12833 6.74362Z" fill="#060606"/>
</svg>
