<svg width="17" height="17" viewBox="0 0 17 17" fill="none" xmlns="http://www.w3.org/2000/svg">
<path fill-rule="evenodd" clip-rule="evenodd" d="M8.53559 16.8539H8.53209C7.11545 16.8534 5.72346 16.4997 4.48714 15.8286L0 17L1.20083 12.6348C0.4601 11.3573 0.0703311 9.9081 0.0709663 8.42341C0.0728232 3.77878 3.86998 0 8.53551 0C10.7999 0.000972596 12.9251 0.878254 14.5232 2.47056C16.1213 4.06278 17.0009 6.17922 17 8.43005C16.9981 13.0736 13.2025 16.852 8.53559 16.8539ZM4.69501 14.3035L4.95191 14.4552C6.03209 15.0931 7.27028 15.4307 8.53272 15.4312H8.53557C12.4132 15.4312 15.5693 12.2902 15.5708 8.4295C15.5715 6.55863 14.8404 4.79953 13.5122 3.47607C12.1839 2.15261 10.4175 1.4234 8.53834 1.42275C4.65768 1.42275 1.50162 4.56343 1.50008 8.42382C1.49953 9.74681 1.87148 11.0352 2.57573 12.15L2.74301 12.4149L2.03228 14.9986L4.69501 14.3035ZM12.7999 10.4331C12.7471 10.3453 12.6061 10.2926 12.3946 10.1872C12.1831 10.0819 11.1433 9.57274 10.9494 9.50243C10.7556 9.43222 10.6145 9.39713 10.4735 9.60778C10.3326 9.81847 9.92724 10.2926 9.80386 10.4331C9.68047 10.5735 9.55709 10.5912 9.34568 10.4858C9.13418 10.3804 8.45269 10.1582 7.64484 9.44106C7.01609 8.88291 6.59163 8.19366 6.46826 7.98293C6.34488 7.77221 6.45511 7.65833 6.56098 7.55337C6.65614 7.45903 6.7725 7.30747 6.87824 7.1846C6.98398 7.06172 7.01923 6.97387 7.08973 6.83349C7.16022 6.69295 7.12499 6.57008 7.0721 6.46471C7.01923 6.35935 6.59626 5.32329 6.42001 4.90183C6.24832 4.4914 6.07397 4.547 5.94415 4.54051C5.82093 4.53435 5.67978 4.53306 5.5388 4.53306C5.39781 4.53306 5.16866 4.58574 4.9748 4.79647C4.78095 5.0072 4.23458 5.51643 4.23458 6.55241C4.23458 7.58847 4.99242 8.58935 5.09818 8.72981C5.20392 8.87035 6.58953 10.9963 8.71118 11.9081C9.21578 12.1249 9.6097 12.2545 9.91689 12.3514C10.4235 12.5117 10.8846 12.4891 11.249 12.4349C11.6554 12.3744 12.5003 11.9257 12.6766 11.4341C12.8528 10.9423 12.8528 10.5209 12.7999 10.4331Z" fill="#060606"/>
</svg>
