<svg aria-hidden="true" xmlns="http://www.w3.org/2000/svg" xmlns:xlink="http://www.w3.org/1999/xlink"><symbol viewBox="0 0 11 11" fill="none" id="icon-arrow-rotate" xmlns="http://www.w3.org/2000/svg">
<path d="M11 10.6417H9.9865V1.73007L0.716574 11L0 10.2834L9.26993 1.0135H0.358287V0H11V10.6417Z" fill="currentColor"/>
</symbol><symbol viewBox="0 0 24 22" fill="none" id="icon-cart" xmlns="http://www.w3.org/2000/svg">
<path d="M18.8688 0C20.6874 0 22.2027 1.41079 22.2276 3.20728L23.9961 18.6805C23.9987 18.7029 24 18.7257 24 18.7482C23.9998 20.5659 22.4738 22 20.6402 22H3.35981C1.52618 22 0.000178818 20.5659 0 18.7482C0 18.73 0.000271983 18.7111 0.00193705 18.693L1.42663 3.20728C1.45149 1.41079 2.96684 0 4.78547 0H18.8688ZM4.78547 1.18846C3.56527 1.18846 2.61519 2.13392 2.61501 3.2518C2.61501 3.26998 2.61474 3.28887 2.61308 3.30697L1.19031 18.7685C1.20192 19.8775 2.14701 20.8115 3.35981 20.8115H20.6402C21.8526 20.8115 22.7966 19.878 22.8087 18.7695L21.0431 3.31955C21.0405 3.29715 21.0392 3.27434 21.0392 3.2518C21.039 2.13392 20.089 1.18846 18.8688 1.18846H4.78547ZM7.12833 6.74362C7.12833 6.41522 7.39436 6.14843 7.723 6.14843C8.05165 6.14843 8.31768 6.41522 8.31768 6.74362C8.31789 8.7176 9.9554 10.338 12 10.338C14.0446 10.338 15.6821 8.7176 15.6823 6.74362C15.6823 6.41522 15.9484 6.14843 16.277 6.14843C16.6056 6.14843 16.8717 6.41522 16.8717 6.74362C16.8715 9.39666 14.6794 11.5275 12 11.5275C9.32062 11.5275 7.12854 9.39666 7.12833 6.74362Z" fill="currentColor"/>
</symbol><symbol viewBox="0 0 15 15" fill="none" id="icon-close" xmlns="http://www.w3.org/2000/svg">
<path d="M15 0.721116L8.22112 7.5L15 14.2789L14.2789 15L7.5 8.22112L0.721116 15L0 14.2789L6.77888 7.5L0 0.721116L0.721116 0L7.5 6.77888L14.2789 0L15 0.721116Z" fill="currentColor"/>
</symbol><symbol viewBox="0 0 15 9" fill="none" id="icon-down" xmlns="http://www.w3.org/2000/svg">
<path d="M13.698 0.704875C14.0128 0.415681 14.5035 0.434945 14.7941 0.748109C15.0847 1.0614 15.0654 1.54972 14.7507 1.839L7.5 8.5L0.249302 1.839C-0.0653676 1.54972 -0.0847249 1.0614 0.20586 0.748109C0.496535 0.434945 0.987201 0.415681 1.302 0.704875L7.5 6.39864L13.698 0.704875Z" fill="currentColor"/>
</symbol><symbol viewBox="0 0 19 13" fill="none" id="icon-filters" xmlns="http://www.w3.org/2000/svg">
<path d="M11.5039 11.3043C11.9536 11.3043 12.3182 11.6839 12.3182 12.1522C12.3182 12.6204 11.9536 13 11.5039 13H7.49609C7.04638 13 6.68181 12.6204 6.68181 12.1522C6.68181 11.6839 7.04638 11.3043 7.49609 11.3043H11.5039ZM15.5128 5.65217C15.9625 5.65217 16.3271 6.03176 16.3271 6.5C16.3271 6.96824 15.9625 7.34783 15.5128 7.34783H3.48722C3.0375 7.34783 2.67294 6.96824 2.67294 6.5C2.67294 6.03176 3.0375 5.65217 3.48722 5.65217H15.5128ZM18.1857 0C18.6354 0 19 0.379585 19 0.847826C19 1.31607 18.6354 1.69565 18.1857 1.69565H0.814286C0.364568 1.69565 0 1.31607 0 0.847826C0 0.379585 0.364568 0 0.814286 0H18.1857Z" fill="currentColor"/>
</symbol><symbol viewBox="0 0 26 22" fill="none" id="icon-heart" xmlns="http://www.w3.org/2000/svg">
<path d="M19.1625 0.000248112C20.0612 -0.00736649 20.9528 0.160351 21.785 0.494779C22.6174 0.829263 23.3742 1.32376 24.0111 1.94934C24.648 2.57487 25.1522 3.31933 25.4939 4.1394C25.8355 4.95963 26.0076 5.83948 25.9997 6.72626C25.9919 7.61293 25.8044 8.4893 25.4483 9.30343C25.0936 10.1144 24.5779 10.8465 23.9336 11.4596L13.3788 21.8293C13.1471 22.0569 12.7751 22.0569 12.5434 21.8293L1.98768 11.4606C0.715767 10.211 4.19184e-05 8.51398 0 6.74271C0 4.97145 0.715827 3.27447 1.98768 2.02482C3.25961 0.775959 4.9828 0.075829 6.77711 0.0757343C8.57151 0.0757343 10.2945 0.775912 11.5665 2.02482L12.9611 3.39229L14.3479 2.0316C14.9738 1.39521 15.7224 0.888916 16.5488 0.540264C17.3752 0.19163 18.2638 0.00791857 19.1625 0.000248112ZM1.19009 6.74271C1.19013 8.19224 1.77652 9.58464 2.82307 10.6128L12.9611 20.5712L23.0991 10.6128L23.1069 10.6051C23.6401 10.0992 24.0651 9.49491 24.3571 8.82729C24.6491 8.15959 24.8022 7.44163 24.8087 6.71561C24.8151 5.98953 24.675 5.26878 24.3949 4.59619C24.1147 3.92362 23.6999 3.31197 23.1757 2.79711C22.6515 2.2823 22.0276 1.87427 21.3402 1.59804C20.6527 1.3218 19.9156 1.18329 19.1722 1.18964C18.429 1.19599 17.6945 1.34693 17.0121 1.63481C16.3296 1.92273 15.7128 2.3412 15.1979 2.86485L15.1901 2.87259L13.3788 4.65039C13.1471 4.87772 12.7751 4.87772 12.5434 4.65039L10.7321 2.87259C9.68488 1.84435 8.26208 1.26512 6.77711 1.26512C5.38512 1.26521 4.04816 1.77409 3.02368 2.68484L2.82307 2.87259C1.77655 3.90081 1.19009 5.29317 1.19009 6.74271Z" fill="currentColor"/>
</symbol><symbol viewBox="0 0 20 40" fill="none" id="icon-next" xmlns="http://www.w3.org/2000/svg">
<path d="M20 20L1.27847 40L0 38.6342L17.4431 20L0 1.36578L1.27847 0L20 20Z" fill="currentColor"/>
</symbol><symbol viewBox="0 0 20 40" fill="none" id="icon-prev" xmlns="http://www.w3.org/2000/svg">
<path d="M20 1.36578L2.55695 20L20 38.6342L18.7215 40L0 20L18.7215 0L20 1.36578Z" fill="currentColor"/>
</symbol><symbol viewBox="0 0 26 22" fill="none" id="icon-profile" xmlns="http://www.w3.org/2000/svg">
<path d="M13 15.6444C19.5284 15.6444 23.8864 17.7837 25.9126 21.0959C26.084 21.3762 25.9955 21.7416 25.7149 21.9128C25.4343 22.0839 25.0684 21.9955 24.897 21.7153C23.1704 18.8931 19.3035 16.8338 13 16.8338C6.69653 16.8338 2.82957 18.8931 1.10301 21.7153C0.931589 21.9955 0.56568 22.0839 0.285066 21.9128C0.00446846 21.7416 -0.0840039 21.3762 0.0873641 21.0959C2.11361 17.7837 6.47158 15.6444 13 15.6444ZM17.5016 5.589C17.5016 3.16937 15.4965 1.18845 13 1.18845C10.5035 1.18845 8.49841 3.16937 8.49841 5.589C8.49843 8.00862 10.5035 9.98955 13 9.98955C15.4965 9.98955 17.5016 8.00862 17.5016 5.589ZM18.6917 5.589C18.6917 8.68638 16.133 11.178 13 11.178C9.86702 11.178 7.30834 8.68638 7.30832 5.589C7.30832 2.4916 9.86701 0 13 0C16.133 0 18.6917 2.4916 18.6917 5.589Z" fill="currentColor"/>
</symbol><symbol viewBox="0 0 24 24" fill="none" id="icon-search" xmlns="http://www.w3.org/2000/svg">
<path d="M20.4234 11.3059C20.4233 6.27067 16.3412 2.18844 11.3059 2.18844C6.27073 2.18854 2.18854 6.27073 2.18844 11.3059C2.18844 16.3412 6.27067 20.4233 11.3059 20.4234C16.3413 20.4234 20.4234 16.3413 20.4234 11.3059ZM21.6128 11.3059C21.6128 13.9703 20.601 16.3981 18.9417 18.2275L22.8187 21.9777C23.0546 22.2059 23.0612 22.5826 22.8332 22.8187C22.6049 23.0546 22.2282 23.0612 21.9922 22.8332L18.091 19.0598C16.278 20.6476 13.9054 21.6128 11.3059 21.6128C5.61389 21.6127 1 16.998 1 11.3059C1.0001 5.61395 5.61395 1.0001 11.3059 1C16.998 1 21.6127 5.61389 21.6128 11.3059Z" fill="currentColor"/>
</symbol><symbol viewBox="0 0 19 15" fill="none" id="icon-share" xmlns="http://www.w3.org/2000/svg">
<path d="M8.62532 0.0715013C8.81796 -0.0330512 9.05187 -0.022202 9.23417 0.0998225L18.7341 6.45842C18.8964 6.56707 18.9958 6.75 18.9999 6.94671C19.0039 7.14325 18.9128 7.32934 18.7554 7.44477L9.25447 14.4059C9.07391 14.5381 8.83557 14.557 8.63692 14.4548C8.43821 14.3523 8.31232 14.146 8.3122 13.9206V10.7554C6.36673 10.6809 4.63574 11.5615 3.32449 12.5553C2.61663 13.0918 2.04829 13.6481 1.65742 14.07C1.46258 14.2803 1.31276 14.456 1.21286 14.5778C1.16304 14.6385 1.12602 14.6862 1.10172 14.7175C1.08964 14.733 1.08017 14.7444 1.07466 14.7516C1.07191 14.7553 1.06886 14.7595 1.06886 14.7595C0.915567 14.966 0.648297 15.051 0.405898 14.9694C0.163436 14.8877 0 14.6583 0 14.4001V14.3669C0.000305746 14.3476 0.000807172 14.3202 0.00193285 14.2858C0.00419039 14.2169 0.00873648 14.1182 0.0173956 13.9938C0.0347118 13.7451 0.069159 13.392 0.137232 12.9645C0.273144 12.111 0.544676 10.9507 1.09109 9.72805C2.15126 7.35587 4.24533 4.75801 8.3122 3.72396V0.599838C8.3122 0.378938 8.43279 0.176081 8.62532 0.0715013ZM9.49994 4.19956C9.49994 4.48233 9.30475 4.72703 9.03122 4.78649C5.09512 5.6388 3.15147 8.03392 2.17349 10.2222C1.78488 11.0918 1.54933 11.9304 1.40615 12.6275C1.74832 12.3005 2.15206 11.9441 2.61224 11.5953C4.15407 10.4268 6.38649 9.27741 8.98 9.605C9.277 9.64253 9.49975 9.89732 9.49994 10.1997V12.7438L17.3647 6.98089L9.49994 1.71608V4.19956Z" fill="currentColor"/>
</symbol><symbol viewBox="0 0 19 19" fill="none" id="icon-size" xmlns="http://www.w3.org/2000/svg">
<path d="M12.4901 0.527847C13.1939 -0.175949 14.3357 -0.175949 15.0395 0.527847L18.4722 3.96054C19.1759 4.66433 19.1759 5.80613 18.4722 6.50993L6.50993 18.4722C5.80613 19.1759 4.66433 19.1759 3.96054 18.4722L0.527847 15.0395C-0.175949 14.3357 -0.175949 13.1939 0.527847 12.4901L12.4901 0.527847ZM14.1997 1.36766C13.9596 1.12762 13.5699 1.12762 13.3299 1.36766L1.36766 13.3299C1.12762 13.5699 1.12762 13.9596 1.36766 14.1997L4.80035 17.6323C5.04038 17.8724 5.43008 17.8724 5.67012 17.6323L7.65996 15.6415C7.48961 15.6579 7.31397 15.6038 7.18351 15.4734L5.4749 13.7648C5.24302 13.5329 5.24302 13.1568 5.4749 12.925C5.70671 12.6935 6.08194 12.6935 6.31375 12.925L8.02333 14.6336C8.15362 14.7639 8.20762 14.9399 8.19148 15.11L10.2229 13.0786C10.0527 13.0948 9.87674 13.0408 9.74644 12.9105L8.03782 11.2009C7.80631 10.9691 7.80628 10.5938 8.03782 10.362C8.2697 10.1302 8.64575 10.1302 8.87763 10.362L10.5862 12.0707C10.7167 12.2011 10.7707 12.3768 10.7544 12.5471L12.7868 10.5147C12.6164 10.531 12.4408 10.477 12.3103 10.3466L10.6017 8.63796C10.3698 8.40608 10.3698 8.03003 10.6017 7.79815C10.8336 7.56648 11.2097 7.56634 11.4415 7.79815L13.1501 9.50677C13.2805 9.63708 13.3344 9.81303 13.3183 9.98321L15.3506 7.95085C15.1803 7.96729 15.0047 7.91397 14.8742 7.78366L13.1646 6.07408C12.9331 5.84228 12.9332 5.46704 13.1646 5.23523C13.3965 5.00335 13.7726 5.00335 14.0044 5.23523L15.7131 6.94384C15.8435 7.07431 15.8976 7.24993 15.8812 7.42029L17.6323 5.67012C17.8724 5.43008 17.8724 5.04038 17.6323 4.80035L14.1997 1.36766Z" fill="currentColor"/>
</symbol><symbol viewBox="0 0 22 13" fill="none" id="icon-sort" xmlns="http://www.w3.org/2000/svg">
<path d="M3.89412 0.722217C3.89412 0.323347 4.23772 0 4.66157 0C5.0854 1.20796e-05 5.42901 0.323355 5.42901 0.722217V10.6207L8.18201 8.21616C8.49263 7.94476 8.97884 7.96147 9.26723 8.25377C9.55548 8.54608 9.53682 9.00368 9.22626 9.27503L5.18419 12.8071C4.8857 13.0679 4.42222 13.0637 4.12895 12.7977L0.234774 9.26563C-0.0703276 8.98887 -0.0791792 8.53156 0.214788 8.24437C0.508936 7.95719 0.994839 7.94875 1.3 8.22556L3.89412 10.5784V0.722217ZM16.2282 9.87688C16.652 9.87688 16.9956 10.2002 16.9956 10.5991C16.9956 10.998 16.652 11.3213 16.2282 11.3213H12.4749C12.0511 11.3213 11.7075 10.9979 11.7075 10.5991C11.7075 10.2003 12.0511 9.87691 12.4749 9.87688H16.2282ZM18.7304 5.24077C19.1542 5.24077 19.4978 5.56412 19.4978 5.96299C19.4977 6.36173 19.1541 6.68521 18.7304 6.68521H12.4749C12.0512 6.68518 11.7076 6.36171 11.7075 5.96299C11.7075 5.56414 12.0511 5.24081 12.4749 5.24077H18.7304ZM21.2326 0.603728C21.6563 0.603728 21.9998 0.927237 22 1.32595C22 1.72481 21.6564 2.04816 21.2326 2.04816H12.4749C12.0511 2.04813 11.7075 1.72479 11.7075 1.32595C11.7077 0.927257 12.0512 0.60376 12.4749 0.603728H21.2326Z" fill="currentColor"/>
</symbol><symbol viewBox="0 0 17 17" fill="none" id="icon-star" xmlns="http://www.w3.org/2000/svg">
<path d="M13.387 16.4983C13.2677 16.4988 13.1513 16.4613 13.0544 16.3912L8.49911 13.0616L3.94385 16.3912C3.84653 16.4623 3.72929 16.5004 3.60906 16.5C3.48884 16.4996 3.37187 16.4606 3.27507 16.3887C3.17826 16.3168 3.10664 16.2158 3.07055 16.1002C3.03446 15.9845 3.03578 15.8603 3.07431 15.7455L4.85094 10.4402L0.246445 7.25673C0.146709 7.18785 0.0714334 7.08862 0.0316176 6.97354C-0.00819815 6.85846 -0.0104677 6.73356 0.0251406 6.61708C0.0607489 6.50061 0.132369 6.39866 0.229536 6.32615C0.326704 6.25363 0.444326 6.21434 0.565218 6.21402H6.24575L7.96004 0.895132C7.99696 0.780299 8.06902 0.68021 8.16587 0.609223C8.26272 0.538236 8.37938 0.5 8.49911 0.5C8.61885 0.5 8.73551 0.538236 8.83236 0.609223C8.92921 0.68021 9.00127 0.780299 9.0382 0.895132L10.7525 6.21581H16.433C16.5541 6.21575 16.6719 6.25476 16.7694 6.32714C16.8669 6.39952 16.9388 6.50145 16.9746 6.61801C17.0104 6.73458 17.0083 6.85965 16.9685 6.97491C16.9288 7.09016 16.8534 7.18955 16.7536 7.25852L12.1473 10.4402L13.9229 15.7441C13.9516 15.83 13.9597 15.9215 13.9465 16.0112C13.9332 16.1008 13.899 16.186 13.8466 16.2597C13.7943 16.3333 13.7253 16.3934 13.6454 16.4349C13.5654 16.4764 13.4769 16.4981 13.387 16.4983Z" fill="currentColor"/>
</symbol><symbol viewBox="0 0 18 16" fill="none" id="icon-star-stroke" xmlns="http://www.w3.org/2000/svg">
<path fill-rule="evenodd" clip-rule="evenodd" d="M8.83301 0C9.07849 0 9.29605 0.159387 9.37192 0.394808L11.0863 5.71429H16.7663C17.0146 5.71429 17.234 5.87735 17.3076 6.11655C17.3811 6.35576 17.2916 6.61536 17.0868 6.75699L12.482 9.94111L14.2574 15.2458C14.3362 15.4814 14.255 15.7413 14.0564 15.8887C13.8579 16.0361 13.5876 16.0372 13.388 15.8913L8.83301 12.5628L4.27804 15.8913C4.07839 16.0372 3.80812 16.0361 3.60958 15.8887C3.41103 15.7413 3.32978 15.4814 3.40862 15.2458L5.18404 9.94111L0.57925 6.75699C0.374435 6.61536 0.284932 6.35576 0.358449 6.11655C0.431967 5.87735 0.651372 5.71429 0.899714 5.71429H6.57968L8.29409 0.394808C8.36997 0.159387 8.58753 0 8.83301 0ZM8.83301 2.4202L7.53027 6.46234C7.45439 6.69776 7.23683 6.85714 6.99135 6.85714H2.72811L6.17849 9.24301C6.38762 9.38762 6.47602 9.65473 6.39493 9.89702L5.04986 13.9159L8.5005 11.3944C8.69887 11.2495 8.96715 11.2495 9.16551 11.3944L12.6162 13.9159L11.2711 9.89702C11.19 9.65473 11.2784 9.38762 11.4875 9.24301L14.9379 6.85714H10.6747C10.4292 6.85714 10.2116 6.69776 10.1357 6.46234L8.83301 2.4202Z" fill="currentColor"/>
</symbol><symbol viewBox="0 0 25 25" fill="none" id="icon-tel" xmlns="http://www.w3.org/2000/svg">
<path d="M23.7963 16.8075L17.9075 14.1687L17.8913 14.1612C17.5856 14.0305 17.2521 13.978 16.921 14.0086C16.5899 14.0391 16.2716 14.1518 15.995 14.3362C15.9624 14.3578 15.9311 14.3811 15.9013 14.4062L12.8588 17C10.9313 16.0637 8.94126 14.0887 8.00501 12.1862L10.6025 9.0975C10.6275 9.06625 10.6513 9.035 10.6738 9.00125C10.8543 8.72538 10.9638 8.40915 10.9926 8.08072C11.0214 7.75228 10.9686 7.42182 10.8388 7.11875V7.10375L8.19251 1.205C8.02094 0.80908 7.72592 0.479268 7.35149 0.264797C6.97707 0.0503262 6.54333 -0.0373 6.11501 0.0149988C4.42122 0.237882 2.86649 1.06971 1.74118 2.35512C0.61587 3.64053 -0.00305116 5.29161 1.13108e-05 7C1.13108e-05 16.925 8.07501 25 18 25C19.7084 25.0031 21.3595 24.3841 22.6449 23.2588C23.9303 22.1335 24.7621 20.5788 24.985 18.885C25.0374 18.4568 24.95 18.0232 24.7357 17.6488C24.5215 17.2744 24.1919 16.9793 23.7963 16.8075ZM18 23C13.758 22.9954 9.691 21.3082 6.69142 18.3086C3.69184 15.309 2.00464 11.242 2.00001 7C1.99531 5.77936 2.43507 4.59874 3.23718 3.67863C4.03929 2.75852 5.14889 2.16183 6.35876 2C6.35827 2.00499 6.35827 2.01001 6.35876 2.015L8.98376 7.89L6.40001 10.9825C6.37379 11.0127 6.34996 11.0449 6.32876 11.0787C6.14066 11.3674 6.0303 11.6997 6.0084 12.0436C5.9865 12.3874 6.0538 12.7311 6.20376 13.0412C7.33626 15.3575 9.67001 17.6737 12.0113 18.805C12.3237 18.9536 12.6694 19.0185 13.0144 18.9935C13.3595 18.9686 13.6922 18.8545 13.98 18.6625C14.0121 18.6409 14.043 18.6175 14.0725 18.5925L17.1113 16L22.9863 18.6312C22.9863 18.6312 22.9963 18.6312 23 18.6312C22.8402 19.8428 22.2444 20.9547 21.3241 21.7588C20.4038 22.5629 19.2221 23.0041 18 23Z" fill="currentColor"/>
</symbol><symbol viewBox="0 0 17 15" fill="none" id="icon-tg" xmlns="http://www.w3.org/2000/svg">
<path fill-rule="evenodd" clip-rule="evenodd" d="M6.65984 9.8305L12.96 14.5872C13.6789 14.9926 14.1978 14.7827 14.3768 13.9051L16.9413 1.55524C17.2039 0.479493 16.54 -0.00841494 15.8523 0.31068L0.793747 6.24458C-0.23414 6.66591 -0.228147 7.25195 0.606384 7.51308L4.47075 8.74567L13.4172 2.97765C13.8395 2.71593 14.2271 2.85664 13.909 3.14519" fill="currentColor"/>
</symbol><symbol viewBox="0 0 20 11" fill="none" id="icon-vk" xmlns="http://www.w3.org/2000/svg">
<path fill-rule="evenodd" clip-rule="evenodd" d="M10.9808 10.4582C10.9808 10.4582 11.3418 10.4231 11.5267 10.249C11.6959 10.0896 11.69 9.78864 11.69 9.78864C11.69 9.78864 11.6675 8.38349 12.4119 8.17602C13.1456 7.97198 14.0876 9.53487 15.0873 10.1359C15.8425 10.5902 16.4157 10.4908 16.4157 10.4908L19.0872 10.4582C19.0872 10.4582 20.4841 10.3828 19.8218 9.41999C19.767 9.34111 19.4354 8.70756 17.8361 7.40614C16.1604 6.04386 16.3854 6.26419 18.4024 3.90742C19.6311 2.47227 20.1221 1.59609 19.9685 1.22144C19.8228 0.863077 18.9189 0.958239 18.9189 0.958239L15.9119 0.974528C15.9119 0.974528 15.6889 0.947951 15.5236 1.03454C15.3622 1.11942 15.2575 1.31746 15.2575 1.31746C15.2575 1.31746 14.7821 2.42769 14.1473 3.37245C12.8081 5.36486 12.273 5.47031 12.0539 5.34686C11.5443 5.05794 11.6714 4.18776 11.6714 3.56964C11.6714 1.63809 12.006 0.833071 11.0209 0.624742C10.6942 0.555299 10.4536 0.509861 9.61722 0.502145C8.54413 0.492715 7.63636 0.505574 7.12183 0.725906C6.77946 0.872507 6.51534 1.2 6.67675 1.21886C6.87532 1.24201 7.32529 1.32517 7.56397 1.6098C7.87211 1.97759 7.86135 2.80233 7.86135 2.80233C7.86135 2.80233 8.0384 5.07595 7.44757 5.35801C7.04259 5.55176 6.48698 5.15654 5.29259 3.34845C4.68122 2.42254 4.21951 1.3989 4.21951 1.3989C4.21951 1.3989 4.13049 1.20772 3.97104 1.10484C3.77834 0.98053 3.50933 0.94195 3.50933 0.94195L0.652008 0.958239C0.652008 0.958239 0.222578 0.968527 0.0650879 1.13228C-0.0747948 1.27716 0.0543277 1.57808 0.0543277 1.57808C0.0543277 1.57808 2.29147 6.1656 4.82501 8.47779C7.14824 10.5971 9.78547 10.4582 9.78547 10.4582H10.9808Z" fill="currentColor"/>
</symbol><symbol viewBox="0 0 17 17" fill="none" id="icon-wh" xmlns="http://www.w3.org/2000/svg">
<path fill-rule="evenodd" clip-rule="evenodd" d="M8.53559 16.8539H8.53209C7.11545 16.8534 5.72346 16.4997 4.48714 15.8286L0 17L1.20083 12.6348C0.4601 11.3573 0.0703311 9.9081 0.0709663 8.42341C0.0728232 3.77878 3.86998 0 8.53551 0C10.7999 0.000972596 12.9251 0.878254 14.5232 2.47056C16.1213 4.06278 17.0009 6.17922 17 8.43005C16.9981 13.0736 13.2025 16.852 8.53559 16.8539ZM4.69501 14.3035L4.95191 14.4552C6.03209 15.0931 7.27028 15.4307 8.53272 15.4312H8.53557C12.4132 15.4312 15.5693 12.2902 15.5708 8.4295C15.5715 6.55863 14.8404 4.79953 13.5122 3.47607C12.1839 2.15261 10.4175 1.4234 8.53834 1.42275C4.65768 1.42275 1.50162 4.56343 1.50008 8.42382C1.49953 9.74681 1.87148 11.0352 2.57573 12.15L2.74301 12.4149L2.03228 14.9986L4.69501 14.3035ZM12.7999 10.4331C12.7471 10.3453 12.6061 10.2926 12.3946 10.1872C12.1831 10.0819 11.1433 9.57274 10.9494 9.50243C10.7556 9.43222 10.6145 9.39713 10.4735 9.60778C10.3326 9.81847 9.92724 10.2926 9.80386 10.4331C9.68047 10.5735 9.55709 10.5912 9.34568 10.4858C9.13418 10.3804 8.45269 10.1582 7.64484 9.44106C7.01609 8.88291 6.59163 8.19366 6.46826 7.98293C6.34488 7.77221 6.45511 7.65833 6.56098 7.55337C6.65614 7.45903 6.7725 7.30747 6.87824 7.1846C6.98398 7.06172 7.01923 6.97387 7.08973 6.83349C7.16022 6.69295 7.12499 6.57008 7.0721 6.46471C7.01923 6.35935 6.59626 5.32329 6.42001 4.90183C6.24832 4.4914 6.07397 4.547 5.94415 4.54051C5.82093 4.53435 5.67978 4.53306 5.5388 4.53306C5.39781 4.53306 5.16866 4.58574 4.9748 4.79647C4.78095 5.0072 4.23458 5.51643 4.23458 6.55241C4.23458 7.58847 4.99242 8.58935 5.09818 8.72981C5.20392 8.87035 6.58953 10.9963 8.71118 11.9081C9.21578 12.1249 9.6097 12.2545 9.91689 12.3514C10.4235 12.5117 10.8846 12.4891 11.249 12.4349C11.6554 12.3744 12.5003 11.9257 12.6766 11.4341C12.8528 10.9423 12.8528 10.5209 12.7999 10.4331Z" fill="currentColor"/>
</symbol></svg>