<svg width="69" height="35" viewBox="0 0 69 35" fill="none" xmlns="http://www.w3.org/2000/svg">
<path d="M60.9573 9.99081V18.5483H57.8671V12.5454H54.8916V18.5483H51.802V9.99023L60.9573 9.99081Z" fill="#D8D8D8"/>
<path fill-rule="evenodd" clip-rule="evenodd" d="M45.456 18.8549C48.2219 18.8549 50.2759 17.1777 50.2759 14.635C50.2759 12.174 48.7602 10.5762 46.2276 10.5762C45.0587 10.5762 44.0942 10.9831 43.3674 11.6852C43.5411 10.2341 44.7818 9.17465 46.1481 9.17465C46.4634 9.17465 48.8371 9.16968 48.8371 9.16968L50.1797 6.62939C50.1797 6.62939 47.1998 6.69647 45.8142 6.69647C42.6484 6.75101 40.5105 9.59639 40.5105 13.0523C40.5105 17.0785 42.5958 18.8549 45.456 18.8549ZM45.4726 12.8263C46.4993 12.8263 47.2113 13.4936 47.2113 14.6347C47.2113 15.6617 46.5788 16.5079 45.4726 16.5103C44.414 16.5103 43.702 15.7262 43.702 14.6522C43.702 13.5109 44.414 12.8263 45.4726 12.8263Z" fill="#D8D8D8"/>
<path d="M37.9952 15.6839C37.9952 15.6839 37.266 16.0999 36.1759 16.1787C34.923 16.2154 33.8066 15.4328 33.8066 14.0423C33.8066 12.686 34.7916 11.9086 36.1445 11.9086C36.9737 11.9086 38.0709 12.4771 38.0709 12.4771C38.0709 12.4771 38.8739 11.0201 39.2898 10.2915C38.5284 9.7207 37.514 9.40771 36.3341 9.40771C33.3567 9.40771 31.0503 11.3276 31.0503 14.0251C31.0503 16.757 33.2177 18.6323 36.3341 18.5757C37.2051 18.5436 38.4067 18.2411 39.1392 17.7759L37.9952 15.6839Z" fill="#D8D8D8"/>
<path d="M0 7.61865L4.28605 15.1952V19.8167L0.00512403 27.3784L0 7.61865Z" fill="#D8D8D8"/>
<path d="M16.4583 12.4386L20.4745 10.0042L28.6941 9.99658L16.4583 17.4095V12.4386Z" fill="#D8D8D8"/>
<path d="M16.4351 7.57421L16.4582 17.6053L12.1619 14.9947V0L16.4351 7.57421Z" fill="#D8D8D8"/>
<path d="M28.694 9.99639L20.4738 10.004L16.4351 7.57421L12.1619 0L28.694 9.99639Z" fill="#D8D8D8"/>
<path d="M16.4582 27.4205V22.5537L12.1619 19.9927L12.1638 35.0024L16.4582 27.4205Z" fill="#D8D8D8"/>
<path d="M20.4638 25.0081L4.28605 15.1952L0 7.61865L28.6764 24.9983L20.4638 25.0081Z" fill="#D8D8D8"/>
<path d="M12.1643 35.0021L16.4574 27.4202L20.464 25.008L28.6766 24.998L12.1643 35.0021Z" fill="#D8D8D8"/>
<path d="M0.00512695 27.3783L12.1961 19.9928L8.09786 17.5059L4.28605 19.8166L0.00512695 27.3783Z" fill="#D8D8D8"/>
<path d="M33.8073 24.3081C33.7131 24.4271 33.5888 24.517 33.4401 24.5777C33.2869 24.6392 33.1235 24.6705 32.9588 24.6698C32.7947 24.672 32.6313 24.6449 32.4769 24.5899C32.3385 24.5401 32.2116 24.4624 32.1045 24.3618C31.9994 24.261 31.9161 24.1394 31.8617 24.0048C31.8027 23.8574 31.7726 23.6999 31.7745 23.5413C31.7745 23.3838 31.8021 23.238 31.8591 23.0997C31.9136 22.9611 31.993 22.8424 32.0924 22.7426C32.1917 22.6409 32.3109 22.5632 32.4448 22.5026C32.5813 22.4442 32.73 22.4127 32.8941 22.4127C33.0703 22.4127 33.2344 22.4346 33.3831 22.4781C33.5317 22.5219 33.6586 22.5947 33.7624 22.6969L33.5817 23.0002C33.4939 22.9217 33.3907 22.8621 33.2786 22.8252C33.1722 22.7912 33.0607 22.7741 32.9485 22.7745C32.8492 22.7745 32.755 22.7937 32.6634 22.8301C32.573 22.8662 32.4903 22.9189 32.4198 22.9856C32.3481 23.0542 32.2917 23.1368 32.2539 23.2283C32.2116 23.3228 32.1917 23.4272 32.1917 23.5436C32.1917 23.6626 32.2141 23.7694 32.2558 23.8616C32.2987 23.9563 32.3558 24.0366 32.4275 24.1042C32.4993 24.1725 32.5839 24.2232 32.6807 24.2574C32.7774 24.2938 32.8793 24.3108 32.9883 24.3108C33.1222 24.3108 33.244 24.2839 33.3484 24.2329C33.4516 24.1836 33.5439 24.1153 33.6215 24.0316L33.8073 24.3081ZM34.3187 24.6188V22.4589H34.7109V24.0681L35.9869 22.4589H36.3791V24.6191H35.9869V23.0098L34.7109 24.6191L34.3187 24.6188ZM38.9777 24.3081C38.881 24.4282 38.7541 24.5211 38.6105 24.5777C38.4574 24.6391 38.2939 24.6704 38.1286 24.6698C37.9645 24.672 37.8018 24.6449 37.6473 24.5899C37.5082 24.5401 37.3814 24.4624 37.275 24.3618C37.1692 24.261 37.0866 24.1394 37.0314 24.0048C36.9725 23.8574 36.943 23.6999 36.9449 23.5413C36.9449 23.3838 36.9718 23.238 37.0289 23.0997C37.084 22.9611 37.1635 22.8424 37.2622 22.7426C37.3615 22.6409 37.4807 22.5632 37.6146 22.5026C37.7563 22.441 37.9094 22.4104 38.0639 22.4127C38.2401 22.4127 38.4042 22.4346 38.5528 22.4781C38.7022 22.5219 38.8284 22.5947 38.9329 22.6969L38.7515 23.0002C38.6644 22.9217 38.5612 22.862 38.449 22.8252C38.342 22.7913 38.2311 22.7741 38.119 22.7745C37.9216 22.7751 37.7325 22.8507 37.5903 22.9856C37.5185 23.0547 37.4621 23.1372 37.4236 23.2283C37.3814 23.3228 37.3615 23.4272 37.3615 23.5436C37.3615 23.6626 37.3839 23.7694 37.4262 23.8616C37.4685 23.9563 37.5256 24.0366 37.5973 24.1042C37.6691 24.1725 37.7537 24.2232 37.8505 24.2574C37.9472 24.2912 38.0491 24.3108 38.1581 24.3108C38.2927 24.3108 38.4119 24.2839 38.5182 24.2329C38.6214 24.1836 38.7143 24.1153 38.7912 24.0316L38.9777 24.3081ZM39.179 22.4589H41.1912V22.8424H40.3825V24.6188H39.9903V22.8424H39.1809V22.4589H39.179Z" fill="#D8D8D8"/>
<path fill-rule="evenodd" clip-rule="evenodd" d="M43.0235 24.5969C43.1722 24.5509 43.299 24.4803 43.408 24.3834L43.2888 24.0824C43.217 24.1457 43.1202 24.1991 43.0036 24.2428C42.887 24.2866 42.7556 24.3082 42.6114 24.3082C42.3954 24.3082 42.2166 24.2524 42.075 24.1384C41.934 24.0241 41.8571 23.8642 41.8392 23.6601H43.5374C43.5548 23.5848 43.5618 23.4999 43.5618 23.4005C43.5618 23.2523 43.5342 23.119 43.4798 22.9976C43.4291 22.8798 43.3548 22.7732 43.2619 22.6843C43.167 22.5963 43.0555 22.5278 42.9338 22.4831C42.8069 22.4342 42.671 22.4095 42.5345 22.4102C42.3506 22.4102 42.1891 22.4417 42.0481 22.5C41.9142 22.5556 41.7937 22.6374 41.6931 22.7403C41.595 22.8429 41.52 22.9644 41.472 23.0971C41.4201 23.2385 41.3938 23.3881 41.3951 23.5387C41.3951 23.7088 41.4252 23.8639 41.4797 24.0025C41.5329 24.1367 41.6142 24.2583 41.7181 24.3592C41.82 24.4584 41.9436 24.5339 42.0904 24.5873C42.2474 24.6424 42.4127 24.6694 42.5794 24.6673C42.73 24.6664 42.8799 24.6424 43.0235 24.5969ZM42.0308 22.9343C42.1519 22.8252 42.3134 22.7718 42.5172 22.7718C42.7082 22.7718 42.862 22.8229 42.9741 22.925C43.0856 23.0268 43.1452 23.1677 43.1549 23.3471H41.8148C41.8334 23.1882 41.9103 23.0414 42.0308 22.9343Z" fill="#D8D8D8"/>
<path d="M44.0955 22.4585H44.4531L45.3015 23.5289L46.1058 22.4585H46.4532V24.6187H46.061V23.0436L45.2971 24.0458H45.2817L44.4877 23.0433V24.6184H44.0955V22.4585Z" fill="#D8D8D8"/>
<path fill-rule="evenodd" clip-rule="evenodd" d="M47.5206 22.4661C47.402 22.4969 47.2879 22.5451 47.1835 22.6091L47.2873 22.9153C47.377 22.8716 47.4661 22.8351 47.5558 22.8036C47.6449 22.7718 47.759 22.7572 47.8955 22.7572C48.0051 22.7572 48.0916 22.7744 48.1589 22.8083C48.2255 22.8398 48.2755 22.8885 48.3101 22.9468C48.3447 23.0052 48.3671 23.0778 48.38 23.1627C48.3921 23.2476 48.3973 23.3397 48.3973 23.4395C48.3165 23.3842 48.2255 23.3469 48.1288 23.3301C48.0358 23.3118 47.941 23.302 47.8461 23.3009C47.7295 23.3009 47.6199 23.3182 47.5161 23.3471C47.4116 23.3762 47.3226 23.4199 47.2501 23.4783C47.1771 23.5365 47.1175 23.6103 47.0765 23.6942C47.0329 23.7859 47.0111 23.8864 47.0117 23.9879C47.0117 24.199 47.0745 24.3642 47.1982 24.4808C47.3225 24.5972 47.486 24.6553 47.6898 24.6553C47.873 24.6553 48.0198 24.6238 48.1313 24.5608C48.2428 24.4974 48.3325 24.4248 48.3973 24.3423V24.6214H48.7645V23.2963C48.7645 23.0145 48.7023 22.7963 48.5761 22.6432C48.4517 22.4903 48.2306 22.4128 47.9179 22.4128C47.7788 22.4128 47.6475 22.432 47.5206 22.4661ZM48.1762 24.2163C48.0871 24.2793 47.9705 24.3082 47.8263 24.3082C47.7 24.3082 47.6007 24.2767 47.5308 24.216C47.4616 24.1529 47.427 24.0704 47.427 23.9683C47.427 23.9079 47.4392 23.8569 47.4667 23.8108C47.4937 23.7647 47.5308 23.7283 47.5731 23.6991C47.6193 23.6686 47.6705 23.6464 47.7244 23.6334C47.782 23.6189 47.8384 23.6116 47.898 23.6116C48.0922 23.6116 48.2582 23.6577 48.3947 23.7548V24.029C48.3306 24.1003 48.2569 24.1634 48.1762 24.2163ZM52.227 21.699C52.3065 21.6628 52.3808 21.6022 52.4507 21.5123L52.2366 21.209C52.1822 21.2819 52.12 21.3326 52.0508 21.3595C51.9771 21.388 51.9002 21.4091 51.8226 21.4225L51.7483 21.4356C51.6836 21.4467 51.6144 21.459 51.5394 21.4712C51.4202 21.4931 51.3036 21.5289 51.192 21.578C51.0158 21.6532 50.8742 21.755 50.7678 21.8836C50.6608 22.0123 50.5768 22.1578 50.5191 22.3182C50.4615 22.4808 50.4224 22.6493 50.4025 22.8206C50.3826 22.9956 50.373 23.1627 50.373 23.3228C50.373 23.5293 50.3999 23.716 50.4544 23.8834C50.5095 24.0512 50.5864 24.1918 50.6883 24.3058C50.7896 24.4225 50.9113 24.51 51.0555 24.573C51.1997 24.636 51.3606 24.6675 51.5419 24.6675C51.7086 24.6675 51.8624 24.636 52.0014 24.5777C52.1354 24.5216 52.2565 24.44 52.3584 24.3376C52.4577 24.2378 52.5372 24.1188 52.5917 23.9855C52.6487 23.8519 52.6763 23.7087 52.6763 23.5582C52.6763 23.3957 52.6513 23.2478 52.6045 23.1166C52.5609 22.9914 52.4917 22.8766 52.4007 22.7794C52.3097 22.6838 52.1988 22.6091 52.0758 22.5607C51.9399 22.5077 51.7944 22.4814 51.649 22.4831C51.5541 22.4831 51.4625 22.4953 51.3734 22.5195C51.2862 22.5437 51.2029 22.5789 51.1247 22.6239C51.0491 22.6668 50.9799 22.7198 50.919 22.7814C50.8594 22.8424 50.8101 22.9104 50.7748 22.9879H50.7652C50.7729 22.8885 50.7851 22.7867 50.8069 22.6823C50.8293 22.5778 50.862 22.4781 50.9043 22.3836C50.9466 22.2891 51.0011 22.2039 51.0677 22.1263C51.1395 22.048 51.2279 21.9859 51.326 21.9443C51.4343 21.8934 51.5484 21.8567 51.6663 21.8352L51.7438 21.8212C51.8214 21.8072 51.8957 21.7938 51.9662 21.7792C52.061 21.76 52.1476 21.7352 52.227 21.699ZM50.8473 23.7743C50.8088 23.6518 50.7902 23.524 50.7921 23.3957C50.8088 23.3221 50.8396 23.2522 50.8819 23.1896C50.9242 23.1239 50.9786 23.0658 51.0434 23.0145C51.1888 22.9016 51.3689 22.8409 51.5541 22.8424C51.7855 22.8424 51.9591 22.9127 52.0803 23.0513C52.202 23.1918 52.2616 23.3666 52.2616 23.5778C52.2616 23.6822 52.2418 23.777 52.2072 23.8642C52.1738 23.9503 52.1232 24.0287 52.0585 24.095C51.9937 24.1613 51.9156 24.214 51.8303 24.2501C51.7406 24.2889 51.6438 24.3084 51.5343 24.3084C51.4253 24.3084 51.326 24.2865 51.2343 24.2428C51.1433 24.1999 51.0626 24.1378 50.9985 24.0608C50.9312 23.9749 50.8799 23.878 50.8473 23.7743ZM55.6844 22.4588H55.2922V24.6191H55.6844V22.4588ZM53.2421 22.4588H53.6343V23.1069H53.9971C54.1682 23.1069 54.3066 23.1288 54.4187 23.17C54.5303 23.2114 54.62 23.2671 54.6866 23.3351C54.7539 23.4031 54.8007 23.4833 54.8283 23.5728C54.8552 23.6627 54.8705 23.7548 54.8705 23.8519C54.8705 23.9491 54.8552 24.0415 54.8231 24.1337C54.7937 24.2259 54.7411 24.3058 54.6719 24.3787C54.602 24.4517 54.5078 24.51 54.3886 24.5538C54.2694 24.5972 54.1259 24.6214 53.9522 24.6214H53.2396V22.4588H53.2421ZM53.6343 23.4684V24.2597H53.9195C54.1163 24.2597 54.2547 24.2259 54.3342 24.1577C54.4136 24.0897 54.4534 23.9928 54.4534 23.8642C54.4534 23.7329 54.4111 23.6338 54.3316 23.5655C54.2496 23.4976 54.1131 23.4634 53.9246 23.4634H53.6343V23.4684Z" fill="#D8D8D8"/>
<path d="M58.2785 24.3081C58.1836 24.4272 58.06 24.517 57.9106 24.5777C57.7581 24.6391 57.5941 24.6705 57.4294 24.6698C57.2653 24.672 57.1019 24.6449 56.9474 24.5899C56.809 24.5402 56.6821 24.4625 56.5757 24.3618C56.47 24.2609 56.3873 24.1393 56.3322 24.0048C56.2732 23.8573 56.2438 23.6999 56.2457 23.5413C56.2457 23.3838 56.2726 23.238 56.3296 23.0997C56.3841 22.9611 56.4636 22.8424 56.5629 22.7426C56.6622 22.6409 56.7814 22.5632 56.9154 22.5026C57.057 22.441 57.2102 22.4103 57.3646 22.4127C57.5409 22.4127 57.7049 22.4346 57.8536 22.4781C58.0029 22.5219 58.1292 22.5947 58.2336 22.6969L58.0523 23.0002C57.9645 22.9217 57.8613 22.8621 57.7491 22.8252C57.6428 22.7912 57.5312 22.7741 57.4191 22.7745C57.3204 22.7745 57.2256 22.7937 57.1339 22.8302C57.0436 22.8662 56.9609 22.9189 56.891 22.9856C56.8193 23.0547 56.7629 23.1372 56.7244 23.2283C56.6821 23.3228 56.6622 23.4272 56.6622 23.5436C56.6622 23.6626 56.6847 23.7694 56.727 23.8616C56.7686 23.9563 56.8263 24.0366 56.8981 24.1042C56.9699 24.1725 57.0545 24.2232 57.1512 24.2574C57.248 24.2912 57.3499 24.3108 57.4588 24.3108C57.5928 24.3108 57.712 24.2839 57.819 24.2329C57.9222 24.1836 58.0151 24.1153 58.092 24.0316L58.2785 24.3081ZM58.4791 22.4589H60.492V22.8424H59.6826V24.6188H59.291V22.8424H58.4816V22.4589H58.4791Z" fill="#D8D8D8"/>
<path fill-rule="evenodd" clip-rule="evenodd" d="M61.3109 22.4591H60.9187V25.5801H61.3109V24.5195C61.3904 24.5705 61.4846 24.607 61.5942 24.6313C61.7031 24.6554 61.8172 24.6674 61.9338 24.6674C62.1081 24.6674 62.2639 24.6359 62.4055 24.5779C62.5414 24.5204 62.6644 24.4371 62.7682 24.3328C62.8695 24.2281 62.9464 24.1068 63.0015 23.9635C63.056 23.8207 63.0835 23.6675 63.0835 23.505C63.0835 23.3446 63.0585 23.1967 63.0111 23.0631C62.9669 22.9362 62.8977 22.8192 62.8079 22.7187C62.7195 22.6205 62.6099 22.5434 62.4875 22.4929C62.3536 22.436 62.2087 22.4078 62.0633 22.4103C61.9095 22.4103 61.7653 22.4395 61.6288 22.4978C61.4923 22.5562 61.3852 22.6262 61.3109 22.7137V22.4591ZM61.5846 22.8595C61.6961 22.8012 61.8178 22.772 61.9492 22.772C62.0633 22.772 62.1652 22.7889 62.2568 22.8254C62.3465 22.8618 62.4209 22.9129 62.483 22.9809C62.5452 23.0488 62.592 23.1267 62.6221 23.2186C62.6541 23.3108 62.6689 23.4105 62.6689 23.5196C62.6689 23.6363 62.649 23.7404 62.6144 23.8375C62.5817 23.9296 62.5305 24.014 62.4632 24.0852C62.3952 24.1555 62.3132 24.2109 62.2222 24.2477C62.1209 24.2896 62.012 24.3103 61.9018 24.3083C61.7954 24.3083 61.6961 24.2964 61.6019 24.2722C61.498 24.2444 61.4 24.2 61.3116 24.1409V23.0704C61.3808 22.9882 61.473 22.9178 61.5846 22.8595ZM66.0917 22.4587H65.6995V24.619H66.0917V22.4587ZM63.6468 22.4587H64.039V23.1069H64.4011C64.5722 23.1069 64.7113 23.1288 64.8234 23.1699C64.9349 23.2113 65.024 23.267 65.0913 23.335C65.158 23.4029 65.2054 23.4832 65.2323 23.5727C65.2599 23.6625 65.2746 23.7547 65.2746 23.8518C65.2746 23.949 65.2599 24.0414 65.2278 24.1336C65.1983 24.2258 65.1458 24.3057 65.0759 24.3786C65.0067 24.4515 64.9125 24.5099 64.7933 24.5536C64.6741 24.5971 64.5306 24.6213 64.3563 24.6213H63.6443V22.4587H63.6468ZM64.0416 23.4683V24.2596H64.3268C64.5229 24.2596 64.6619 24.2258 64.7414 24.1575C64.8209 24.0895 64.8606 23.9927 64.8606 23.8641C64.8606 23.7328 64.8183 23.6337 64.7388 23.5654C64.6568 23.4974 64.5203 23.4633 64.3319 23.4633H64.0416V23.4683Z" fill="#D8D8D8"/>
<path d="M67.9731 23.4998L68.812 24.6187H68.3301L67.6822 23.7448L67.0247 24.6187H66.5677L67.4021 23.5191L66.6177 22.4585H67.099L67.6976 23.2741L68.3051 22.4585H68.762L67.9731 23.4998ZM33.5169 27.2885H32.3133V29.0894H31.9211V26.9295H33.9091V29.0894H33.5169V27.2885ZM36.1354 27.3127H35.3613L35.3363 27.6767C35.3087 27.9851 35.2715 28.2327 35.2196 28.4217C35.1677 28.6113 35.103 28.7569 35.0287 28.8587C34.9543 28.9607 34.8672 29.0311 34.7678 29.0652C34.6653 29.102 34.557 29.12 34.448 29.1186L34.4179 28.7446C34.4602 28.747 34.5096 28.7373 34.564 28.7131C34.6192 28.6889 34.6736 28.6355 34.7255 28.5556C34.7781 28.4727 34.8249 28.3564 34.8672 28.2059C34.9095 28.053 34.937 27.8541 34.9518 27.6039L34.9915 26.9315H36.5276V29.0917H36.1354V27.3127Z" fill="#D8D8D8"/>
<path fill-rule="evenodd" clip-rule="evenodd" d="M37.5851 26.9347C37.4582 26.9685 37.3441 27.017 37.2473 27.0776L37.3518 27.3836C37.4415 27.3399 37.5306 27.3034 37.6197 27.2719C37.7094 27.2404 37.8235 27.2258 37.96 27.2258C38.0695 27.2258 38.1561 27.2428 38.2227 27.2766C38.29 27.3084 38.34 27.3568 38.3746 27.4151C38.4092 27.4735 38.4316 27.5464 38.4438 27.631C38.456 27.7161 38.4611 27.8083 38.4611 27.9078C38.381 27.8526 38.2894 27.8153 38.1932 27.7987C38.0997 27.7803 38.0055 27.7706 37.91 27.7695C37.794 27.7695 37.6844 27.7864 37.5799 27.8156C37.4755 27.8448 37.3864 27.8885 37.3146 27.9469C37.2409 28.0051 37.1813 28.0789 37.1409 28.1627C37.0974 28.2545 37.0749 28.355 37.0762 28.4565C37.0762 28.6674 37.1384 28.8327 37.2627 28.9491C37.3864 29.0655 37.5505 29.1238 37.7536 29.1238C37.9375 29.1238 38.0843 29.0923 38.1958 29.029C38.3073 28.966 38.3964 28.8931 38.4611 28.8106V29.0897H38.829V27.7646C38.829 27.4831 38.7668 27.2646 38.6399 27.1118C38.5156 26.9586 38.2951 26.8813 37.9824 26.8813C37.8478 26.8815 37.7145 26.8996 37.5851 26.9347ZM38.2432 28.6842C38.1541 28.7476 38.0369 28.7767 37.8933 28.7767C37.7639 28.7767 37.6671 28.7452 37.5979 28.6842C37.528 28.6212 37.4934 28.5387 37.4934 28.4369C37.4934 28.3762 37.5056 28.3252 37.5332 28.2791C37.5607 28.233 37.5979 28.1966 37.6402 28.1674C37.6825 28.1382 37.7344 28.1164 37.7914 28.1017C37.8478 28.0873 37.9068 28.08 37.9651 28.0802C38.1586 28.0802 38.3253 28.1262 38.4618 28.2231V28.4973C38.397 28.5686 38.3233 28.6315 38.2432 28.6842Z" fill="#D8D8D8"/>
<path d="M39.2126 26.9297H41.2262V27.313H40.4168V29.0897H40.0246V27.3133H39.2158V26.9297H39.2126Z" fill="#D8D8D8"/>
<path fill-rule="evenodd" clip-rule="evenodd" d="M43.0579 29.0681C43.2072 29.022 43.3335 28.9514 43.4424 28.8545L43.3232 28.5535C43.2514 28.6168 43.1547 28.6702 43.038 28.714C42.9214 28.7577 42.79 28.7793 42.6458 28.7793C42.4299 28.7793 42.2511 28.7236 42.1094 28.6095C41.9684 28.4955 41.8915 28.3354 41.8742 28.1312H43.5719C43.5892 28.0562 43.5969 27.971 43.5969 27.8716C43.5969 27.7237 43.5693 27.5901 43.5148 27.4688C43.4636 27.351 43.3892 27.2445 43.2963 27.1558C43.2015 27.0676 43.0906 26.999 42.9688 26.9542C42.8413 26.9054 42.7054 26.8806 42.5689 26.8813C42.385 26.8813 42.2241 26.9128 42.0825 26.9712C41.9492 27.0266 41.8281 27.1084 41.7275 27.2115C41.6294 27.314 41.5545 27.4355 41.5064 27.5682C41.4545 27.7096 41.4282 27.8593 41.4295 28.0098C41.4295 28.1799 41.4596 28.335 41.5141 28.4737C41.5686 28.6119 41.6506 28.7309 41.7525 28.8304C41.8537 28.9298 41.9781 29.0051 42.1248 29.0584C42.2818 29.1136 42.4472 29.1407 42.6138 29.1387C42.7599 29.1387 42.9092 29.1142 43.0579 29.0681ZM42.0626 27.4031C42.1844 27.2941 42.3459 27.2407 42.5491 27.2407C42.7432 27.2407 42.8945 27.2941 43.006 27.3935C43.1175 27.4956 43.1771 27.6362 43.1874 27.8159H41.8467C41.8659 27.6569 41.9428 27.5103 42.0626 27.4031ZM43.7878 26.93H44.2839L45.0407 27.9713L44.232 29.0899H43.7507L44.5992 27.971L43.7878 26.93ZM45.1375 26.93H45.5303V29.0899H45.1375V26.93ZM46.9325 29.0899L46.0686 27.971L46.8755 26.9297H46.3884L45.6271 27.971L46.4461 29.0899H46.9325ZM48.7243 29.0681C48.8737 29.022 48.9999 28.9514 49.1089 28.8545L48.9897 28.5535C48.9179 28.6168 48.8211 28.6702 48.7045 28.714C48.5878 28.7577 48.4565 28.7793 48.3123 28.7793C48.0963 28.7793 47.9175 28.7236 47.7759 28.6095C47.6349 28.4955 47.558 28.3354 47.5407 28.1312H49.2383C49.2556 28.0562 49.2627 27.971 49.2627 27.8716C49.2627 27.7237 49.2358 27.5901 49.1813 27.4688C49.13 27.351 49.0557 27.2446 48.9627 27.1558C48.8685 27.0675 48.757 26.999 48.6353 26.9542C48.5077 26.9054 48.3719 26.8806 48.2354 26.8813C48.0521 26.8813 47.8906 26.9128 47.749 26.9712C47.6157 27.0267 47.4945 27.1084 47.3939 27.2115C47.2959 27.3139 47.2209 27.4354 47.1735 27.5682C47.1209 27.7096 47.0947 27.8593 47.0959 28.0098C47.0959 28.1799 47.1261 28.335 47.1805 28.4737C47.235 28.6119 47.317 28.7309 47.4189 28.8304C47.5208 28.9298 47.6445 29.0051 47.7913 29.0584C47.9483 29.1136 48.1136 29.1407 48.2802 29.1387C48.4308 29.1376 48.5808 29.1138 48.7243 29.0681ZM47.7291 27.4031C47.8509 27.2941 48.0124 27.2407 48.2162 27.2407C48.4071 27.2407 48.5609 27.2941 48.6724 27.3935C48.7846 27.4956 48.8435 27.6362 48.8538 27.8159H47.5131C47.5324 27.6569 47.6093 27.5103 47.7291 27.4031ZM50.8546 26.2043C50.6232 26.2043 50.497 26.078 50.4771 25.8257H50.1073C50.1073 25.9225 50.1246 26.0101 50.1567 26.0926C50.1893 26.1751 50.2361 26.2454 50.2983 26.3038C50.3605 26.3621 50.4399 26.4082 50.5316 26.4443C50.6232 26.4808 50.7302 26.4977 50.8514 26.4977C50.9635 26.4977 51.0628 26.4808 51.1519 26.4443C51.2416 26.4105 51.316 26.3621 51.3807 26.3038C51.4422 26.2454 51.4922 26.1751 51.5268 26.0926C51.5614 26.0101 51.5787 25.9225 51.5787 25.8257H51.2115C51.1942 26.078 51.0724 26.2043 50.8546 26.2043ZM49.7939 26.9297V29.0899H50.1868L51.4621 27.4807V29.0899H51.8543V26.9297H51.4621L50.1868 28.5389V26.9297H49.7939Z" fill="#D8D8D8"/>
</svg>
