<svg width="104" height="15" viewBox="0 0 104 15" fill="none" xmlns="http://www.w3.org/2000/svg">
<mask id="mask0_2049_3075" style="mask-type:luminance" maskUnits="userSpaceOnUse" x="0" y="0" width="104" height="15">
<path d="M103.178 0H0V14.6374H103.178V0Z" fill="white"/>
</mask>
<g mask="url(#mask0_2049_3075)">
<path d="M18.3125 0H15.8535V12.3849H18.3125V0Z" fill="#D8D8D8"/>
<path d="M13.0281 0.693359H10.5691V13.0779H13.0281V0.693359Z" fill="#D8D8D8"/>
<path d="M7.74404 1.46631H5.28442V13.8532H7.74404V1.46631Z" fill="#D8D8D8"/>
<path d="M2.45961 2.24902H0V14.6375H2.45961V2.24902Z" fill="#D8D8D8"/>
<path d="M83.2682 6.59875L79.3084 2.22656H76.9937V12.3497H79.4103V5.89094L83.026 9.71754H83.4727L87.0256 5.89094V12.3497H89.4429V2.22656H87.1281L83.2682 6.59875Z" fill="#D8D8D8"/>
<path d="M100.958 2.22656L94.9671 8.80626V2.22656H92.5498V12.3497H94.7646L100.755 5.77002V12.3497H103.172V2.22656H100.958Z" fill="#D8D8D8"/>
<path d="M63.9747 5.93078C63.9747 7.54248 64.8623 8.81212 66.2248 9.34447L63.6697 12.3497H66.6285L68.9522 9.61577H71.467V12.3497H73.8836V2.22656H67.7301C65.4359 2.22656 63.9747 3.78519 63.9747 5.93078ZM71.4683 4.45616V7.44957H68.1787C67.081 7.44957 66.492 6.84205 66.492 5.9514C66.492 5.06074 67.1015 4.45323 68.1787 4.45323L71.4683 4.45616Z" fill="#D8D8D8"/>
<path d="M52.7424 4.25117C52.595 7.73271 51.8548 9.97999 50.4071 9.97999H50.0444V12.4101L50.4308 12.4308C53.3346 12.5916 54.9393 10.0611 55.2027 4.53431H59.0222V12.3497H61.4343V2.22656H52.8238L52.7424 4.25117Z" fill="#D8D8D8"/>
<path d="M43.6441 2.08447C40.3751 2.08447 38.0225 4.33176 38.0225 7.28686C38.0225 10.3438 40.5821 12.5114 43.6441 12.5114C46.833 12.5114 49.3105 10.2229 49.3105 7.28686C49.3105 4.35091 46.833 2.08447 43.6441 2.08447ZM43.6441 10.0813C41.7965 10.0813 40.5378 8.88685 40.5378 7.28686C40.5378 5.64709 41.7978 4.48513 43.6441 4.48513C45.4897 4.48513 46.7919 5.70016 46.7919 7.28686C46.7919 8.87349 45.4724 10.0813 43.6441 10.0813Z" fill="#D8D8D8"/>
<path d="M35.4592 2.24512H26.9288L26.8474 4.26972C26.7263 7.18651 25.9598 9.96023 24.5115 10.0001L23.8418 10.0207V14.6373L26.2796 14.6324V12.3506H34.7479V14.6324H37.2062V10.0001H35.4592V2.24512ZM33.0426 10.0001H27.8843C28.7572 8.68474 29.2243 6.78099 29.3057 4.55433H33.0426V10.0001Z" fill="#D8D8D8"/>
</g>
</svg>
