<svg width="115" height="16" viewBox="0 0 115 16" fill="none" xmlns="http://www.w3.org/2000/svg">
<mask id="mask0_2049_3107" style="mask-type:luminance" maskUnits="userSpaceOnUse" x="-1" y="0" width="116" height="16">
<path d="M114.832 0H-0.00012207V15.9102H114.832V0Z" fill="white"/>
</mask>
<g mask="url(#mask0_2049_3107)">
<path d="M9.5107 0.339355V15.6585H6.94215V2.5405H2.57343V15.6585H-0.000244141V0.339355H9.5107Z" fill="#D8D8D8"/>
<path d="M12.7536 15.0527C11.982 14.3501 11.4225 13.4483 11.1374 12.4479C10.7189 11.0471 10.5247 9.58978 10.5619 8.12922C10.526 6.63175 10.7202 5.13746 11.1374 3.69765C11.42 2.66807 11.9788 1.73388 12.7536 0.994251C13.4329 0.417219 14.2968 0.100098 15.1908 0.100098C16.0848 0.100098 16.9486 0.417219 17.6279 0.994251C18.4021 1.72504 18.9577 2.65369 19.2346 3.67792C19.6486 5.11837 19.8427 6.61202 19.81 8.10949C19.8472 9.57832 19.6531 11.044 19.2346 12.453C18.9571 13.4528 18.4002 14.3546 17.6279 15.0527C16.9377 15.6102 16.0752 15.9138 15.1856 15.9138C14.2961 15.9138 13.4342 15.6102 12.744 15.0527H12.7536ZM13.388 11.1827C13.4893 11.8388 13.7367 12.4644 14.1122 13.0143C14.2301 13.1925 14.3897 13.3401 14.5768 13.4445C14.764 13.5489 14.9735 13.6074 15.1882 13.6151C15.8233 13.6151 16.3238 13.1568 16.6756 12.2315C17.1108 10.9084 17.3056 9.51977 17.2511 8.12922C17.2665 7.06387 17.1838 5.99916 17.0031 4.94839C16.8935 4.26507 16.6404 3.61237 16.2591 3.03286C16.1456 2.84537 15.9867 2.68881 15.7977 2.57706C15.608 2.46537 15.3933 2.40205 15.1735 2.3927C14.9575 2.40472 14.7473 2.46938 14.5621 2.58101C14.3769 2.6927 14.2224 2.84785 14.1122 3.03286C13.7367 3.61842 13.4899 4.27621 13.388 4.96315C13.1996 6.01125 13.1131 7.07469 13.1304 8.1394C13.1138 9.15956 13.2003 10.1791 13.388 11.1827Z" fill="#D8D8D8"/>
<path d="M26.8656 0.339355V6.21423H25.507C25.0116 6.2346 24.5175 6.14168 24.0638 5.94312C23.7055 5.75602 23.4313 5.441 23.2954 5.0617C23.1128 4.53647 23.0307 3.98209 23.0525 3.42683V0.339355H20.484V3.42683C20.4064 4.7629 20.807 6.08313 21.6144 7.15421C22.3681 8.05727 23.4941 8.50849 24.9911 8.50849H26.8656V15.6585H29.4393V0.339355H26.8656Z" fill="#D8D8D8"/>
<path d="M39.1184 2.5405H36.0936V15.6585H33.5346V2.5405H30.5149V0.339355H39.1184V2.5405Z" fill="#D8D8D8"/>
<path d="M42.7744 0.339234H44.8329C45.6782 0.306204 46.5151 0.52201 47.238 0.959668C47.8737 1.38434 48.3672 1.98791 48.6562 2.69305C49.0113 3.56665 49.2356 4.48753 49.3201 5.42573L50.5205 15.6585H47.9519L47.1137 8.50849H42.7744V15.6585H40.2065V0.339234H42.7744ZM42.7744 6.30715H46.8612L46.742 5.42573C46.6965 4.86053 46.5798 4.30304 46.3946 3.76648C46.2633 3.40602 46.0095 3.10277 45.6756 2.90969C45.243 2.70578 44.7656 2.61267 44.2869 2.63883H42.7744V6.30715Z" fill="#D8D8D8"/>
<path d="M61.1695 0.339193C62.027 0.318765 62.8729 0.538962 63.6099 0.974393C64.3322 1.43108 64.8948 2.09842 65.221 2.88502C65.6331 3.88565 65.8292 4.96092 65.7965 6.04154C65.8202 7.0668 65.6363 8.08696 65.2563 9.0403C64.9724 9.76771 64.518 10.4175 63.9316 10.9362C63.526 11.3135 62.9998 11.5382 62.4442 11.5713C62.1584 11.5897 61.8713 11.5446 61.6053 11.4402C61.3381 11.3352 61.0984 11.1735 60.9023 10.9654V15.6583H58.3337V0.339193H61.1695ZM61.0561 8.29188C61.1208 8.5649 61.2516 8.81883 61.438 9.03075C61.4989 9.1033 61.5739 9.16312 61.6598 9.20513C61.745 9.24776 61.8386 9.27195 61.9334 9.27641C62.1577 9.26432 62.3686 9.16758 62.5237 9.00593C62.7601 8.75582 62.9312 8.45099 63.019 8.11942C63.1626 7.61029 63.228 7.08207 63.2126 6.55385C63.2126 5.12257 63.0376 4.11113 62.6877 3.52022C62.5397 3.24777 62.3179 3.02127 62.0488 2.86574C61.779 2.7102 61.472 2.63167 61.1599 2.63879H60.9023V7.07061C60.8978 7.48301 60.9497 7.89349 61.0561 8.29188Z" fill="#D8D8D8"/>
<path d="M68.6572 15.0531C67.8843 14.3517 67.3242 13.4493 67.041 12.4482C66.6206 11.0475 66.4251 9.59012 66.4603 8.12957C66.4257 6.63146 66.6212 5.13717 67.041 3.69775C67.321 2.66708 67.8805 1.73226 68.6572 0.994345C69.3256 0.404331 70.1927 0.0845337 71.0867 0.0981529C71.9852 0.0833245 72.8561 0.401023 73.5315 0.989446C74.3076 1.72501 74.8658 2.65862 75.1433 3.68788C75.5554 5.12826 75.7476 6.62255 75.7137 8.12002C75.7489 9.58121 75.5579 11.0392 75.1484 12.4431C74.8684 13.4423 74.3121 14.3435 73.5412 15.0435C72.8471 15.6195 71.9666 15.9256 71.0623 15.9052C70.1837 15.9141 69.3314 15.6118 68.6572 15.0531ZM69.2865 11.1824C69.3929 11.8379 69.6396 12.4629 70.0113 13.0146C70.1293 13.1922 70.2888 13.3398 70.4753 13.4442C70.6631 13.5486 70.8726 13.6071 71.0867 13.6154C71.7269 13.6154 72.2223 13.1572 72.5748 12.2312C73.0009 10.9075 73.1874 9.51821 73.1252 8.12957C73.1413 7.06358 73.0567 5.99887 72.8721 4.94848C72.7753 4.26943 72.5395 3.61737 72.1781 3.03302C72.0717 2.83987 71.9147 2.67866 71.7243 2.5664C71.5334 2.45408 71.3161 2.39483 71.0944 2.39483C70.8726 2.39483 70.6554 2.45408 70.4644 2.5664C70.2741 2.67866 70.1171 2.83987 70.0113 3.03302C69.639 3.62036 69.3923 4.27738 69.2865 4.96324C69.1026 6.0116 69.018 7.07504 69.034 8.13911C69.0186 9.15927 69.1032 10.1788 69.2865 11.1824Z" fill="#D8D8D8"/>
<path d="M77.494 3.80596C78.1265 2.6596 79.1141 1.74616 80.3105 1.20102C81.7063 0.595091 83.22 0.300941 84.7433 0.339253V2.63892C82.9182 2.63892 81.5198 3.09846 80.5483 4.01769C79.5563 4.93361 79.0904 6.30717 79.0904 8.12921C79.0904 9.95125 79.5857 11.1973 80.5432 12.0686C81.5 12.9405 82.9086 13.3739 84.7433 13.3739V15.6732C82.1197 15.6732 80.0869 15.0431 78.6591 13.7824C77.2312 12.5217 76.5167 10.6456 76.5167 8.14448C76.4622 6.63874 76.7987 5.14509 77.494 3.80596Z" fill="#D8D8D8"/>
<path d="M86.1461 3.80596C86.7786 2.6596 87.7661 1.74616 88.9626 1.20102C90.3591 0.595091 91.8721 0.300941 93.3961 0.339253V2.63892C91.5709 2.63892 90.1726 3.09846 89.201 4.01769C88.209 4.93361 87.7431 6.30717 87.7431 8.12921C87.7431 9.95125 88.2385 11.1973 89.1959 12.0686C90.1527 12.9405 91.5607 13.3739 93.3961 13.3739V15.6732C90.773 15.6732 88.7396 15.0431 87.3111 13.7824C85.8833 12.5217 85.1841 10.6309 85.1841 8.12921C85.1277 6.63047 85.4591 5.14191 86.1461 3.80596Z" fill="#D8D8D8"/>
<path d="M97.174 0.33966V5.81048L101.548 2.15177L104.106 0.0146484V15.6735H101.548V5.23453L97.1792 8.89324V15.6589H94.6055V0.33966H97.174Z" fill="#D8D8D8"/>
<path d="M107.89 0.33966V5.81048L112.264 2.15177L114.822 0.0146484V15.6735H112.254V5.23453L107.88 8.89324V15.6589H105.312V0.33966H107.89Z" fill="#D8D8D8"/>
</g>
</svg>
