<svg width="120" height="30" viewBox="0 0 120 30" fill="none" xmlns="http://www.w3.org/2000/svg">
<path d="M49.4093 12.6506C48.7242 12.394 47.8289 12.3171 46.8542 12.3171H41.4287V10.6747H50.7525V7.85205H37.6099V20.0669H46.512C47.7501 20.0669 48.6717 19.9642 49.3567 19.7075C50.8051 19.1685 51.7798 17.8599 51.7798 16.1406C51.7798 14.3957 50.8576 13.1896 49.4093 12.6506ZM47.513 16.8848C47.3022 16.9619 47.0125 16.9874 46.6434 16.9874H41.4287V15.0372H46.6434C47.065 15.0372 47.4073 15.063 47.6706 15.1912C47.9866 15.3452 48.1449 15.6275 48.1449 15.9866C48.1449 16.3459 47.9603 16.7308 47.513 16.8848Z" fill="#D8D8D8"/>
<path d="M62.4873 7.85205H56.9041L51.7683 20.0669H56.0877L56.7984 18.2962H62.593L63.3306 20.0669H67.6237L62.4873 7.85205ZM57.7469 15.6017L59.5643 10.6747H59.854L61.6708 15.6017H57.7469Z" fill="#D8D8D8"/>
<path d="M72.5393 15.5249V20.0669H68.7205V7.85205H72.5393V12.3172H78.6762V7.85205H82.495V20.0669H78.6762V15.5249H72.5393Z" fill="#D8D8D8"/>
<path d="M88.5402 15.4479V20.0669H84.7207V7.85205H88.5402V12.4455H89.5938L94.2028 7.85205H98.9958L92.8858 13.7028L99.2329 20.0669H94.1496L89.5938 15.4479H88.5402Z" fill="#D8D8D8"/>
<path fill-rule="evenodd" clip-rule="evenodd" d="M30.4458 0H0V14.919C0 18.7436 2.09367 22.2777 5.49341 24.1902L15.2229 29.6643L24.9524 24.1902C28.3521 22.2777 30.4458 18.7436 30.4458 14.919V0ZM8.35548 12.4924V7.85226H22.0903V12.4924C21.4386 11.7758 20.2549 11.2909 18.9008 11.2909H17.43V16.6878C17.43 18.121 17.8293 19.3755 18.4214 20.0671H12.0218C12.6159 19.3762 13.0158 18.1201 13.0158 16.685V11.2909H11.545C10.1909 11.2909 9.00659 11.7758 8.35548 12.4924Z" fill="#D8D8D8"/>
</svg>
