<svg width="67" height="19" viewBox="0 0 67 19" fill="none" xmlns="http://www.w3.org/2000/svg">
<mask id="mask0_2049_3038" style="mask-type:luminance" maskUnits="userSpaceOnUse" x="0" y="0" width="67" height="19">
<path d="M66.675 0.591309H0.00012207V18.4107H66.675V0.591309Z" fill="white"/>
</mask>
<g mask="url(#mask0_2049_3038)">
<path fill-rule="evenodd" clip-rule="evenodd" d="M6.22219 0.636787C6.81907 0.63335 8.59301 0.478768 9.34437 2.93269C9.85051 4.58564 10.6568 7.2933 11.7632 11.0557H12.2137C13.4002 7.08914 14.2153 4.38148 14.6589 2.93269C15.4181 0.453184 17.3162 0.636851 18.0754 0.636851H23.933V18.2687H17.9628V7.87797H17.5624L14.2344 18.2687H9.74254L6.41446 7.87027H6.01412V18.2687H0.0439453V0.636851L6.22219 0.636787ZM32.506 0.636851V11.0353H32.9822L37.0306 2.48473C37.8164 0.783161 39.4913 0.636851 39.4913 0.636851H45.2686V18.2687H39.1738V7.87027H38.6975L34.7286 16.4209C33.9428 18.1147 32.1885 18.2687 32.1885 18.2687H26.4111V0.636851H32.506ZM66.3352 9.01561C65.4853 11.3469 62.8151 13.0165 59.8592 13.0165H53.4676V18.2687H47.6717V9.01561H66.3352Z" fill="#D8D8D8"/>
<path fill-rule="evenodd" clip-rule="evenodd" d="M60.139 0.636719H47.3679C47.6719 4.56215 51.1653 7.92258 54.7818 7.92258H66.7381C67.4281 4.66009 65.0531 0.636719 60.139 0.636719Z" fill="#D8D8D8"/>
</g>
</svg>
