<svg width="71" height="20" viewBox="0 0 71 20" fill="none" xmlns="http://www.w3.org/2000/svg">
<mask id="mask0_2049_3090" style="mask-type:luminance" maskUnits="userSpaceOnUse" x="0" y="0" width="71" height="20">
<path d="M70.8602 0H0.00012207V19.0923H70.8602V0Z" fill="white"/>
</mask>
<g mask="url(#mask0_2049_3090)">
<path d="M27.2059 16.9121C25.4179 16.9121 24.0071 16.2706 22.9734 14.9883C21.9401 13.6925 21.4231 11.8724 21.4231 9.52789C21.4231 7.23937 21.9332 5.43286 22.9526 4.10913C23.9862 2.7854 25.467 2.12354 27.3945 2.12354C28.0649 2.12354 28.6654 2.22007 29.1964 2.4131C29.7269 2.59237 30.1601 2.79921 30.4951 3.0336V5.03987C30.118 4.80549 29.6713 4.58484 29.1543 4.37801C28.6376 4.17118 28.0927 4.06776 27.5201 4.06776C26.2908 4.06776 25.397 4.51592 24.8383 5.41217C24.2795 6.30849 24.0001 7.6804 24.0001 9.52789C24.0001 11.3207 24.2795 12.6787 24.8383 13.6028C25.397 14.5129 26.2491 14.9679 27.3945 14.9679C28.0649 14.9679 28.6446 14.8712 29.1334 14.6783C29.6222 14.4715 30.0763 14.2163 30.4951 13.9127V15.9193C30.174 16.1402 29.7408 16.3604 29.1964 16.5812C28.6515 16.802 27.988 16.9121 27.2059 16.9121Z" fill="#D8D8D8"/>
<path d="M32.0723 6.30176H40.2853V16.7056H37.7921V8.2458H34.5655V16.7056H32.0723V6.30176Z" fill="#D8D8D8"/>
<path d="M41.5466 14.5749C41.5466 14.5749 41.5953 14.6099 41.6931 14.6786C41.7909 14.734 41.9307 14.7613 42.1124 14.7613C42.5173 14.7613 42.7828 14.5545 42.9084 14.1408C43.0339 13.7272 43.1178 12.9686 43.1599 11.8657L43.3694 6.30176H50.514V16.7056H48.0208V8.2458H45.4855L45.3386 11.9688C45.2829 13.6928 45.0665 14.9472 44.6894 15.7331C44.3122 16.5191 43.5928 16.9124 42.5312 16.9124C42.2379 16.9124 42.0007 16.878 41.8191 16.8087C41.6374 16.7399 41.5466 16.7056 41.5466 16.7056V14.5749Z" fill="#D8D8D8"/>
<path d="M52.6147 6.30176H55.0449V12.7344L58.9003 6.30176H61.0581V16.7056H58.6279V10.2728L54.7729 16.7056H52.6147V6.30176Z" fill="#D8D8D8"/>
<path d="M70.8832 8.2458H67.95V16.7056H65.4564V8.2458H62.5234V6.30176H70.8832V8.2458Z" fill="#D8D8D8"/>
<mask id="mask1_2049_3090" style="mask-type:luminance" maskUnits="userSpaceOnUse" x="0" y="0" width="20" height="20">
<path d="M9.72716 0H9.61296C4.30394 0 0.00012207 4.27393 0.00012207 9.54613C0.00012207 14.8181 4.30394 19.0923 9.61296 19.0923H9.72716C15.0362 19.0923 19.34 14.8181 19.34 9.54613C19.34 4.27393 15.0362 0 9.72716 0Z" fill="white"/>
</mask>
<g mask="url(#mask1_2049_3090)">
<path fill-rule="evenodd" clip-rule="evenodd" d="M19.34 0H0.00012207V19.0923H19.34V0ZM13.0531 15.2833H11.0328V5.37733H10.1312C8.47833 5.37733 7.61009 6.20148 7.61009 7.42116C7.61009 8.80599 8.21115 9.44876 9.44666 10.2729L10.4652 10.9488L7.52659 15.2833H5.33942L7.97743 11.4102C6.45809 10.3385 5.60654 9.30047 5.60654 7.53635C5.60654 5.32795 7.15932 3.828 10.1146 3.828H13.0531V15.2833Z" fill="#D8D8D8"/>
</g>
</g>
</svg>
