<svg width="56" height="15" viewBox="0 0 56 15" fill="none" xmlns="http://www.w3.org/2000/svg">
<path fill-rule="evenodd" clip-rule="evenodd" d="M8.59378 11.3592H6.15519C2.35101 11.3592 5.11483 3.62554 8.3172 3.62554H12.17C12.7878 3.62554 13.8775 3.73445 14.414 2.27177L15.2431 0H9.95936C7.09823 0 4.87091 0.964713 3.2614 2.58301C0.481571 5.35287 -0.461462 9.67871 0.205005 11.748C0.838821 13.6617 2.56228 14.9222 5.2608 14.9535L7.35815 14.9688H9.94271L10.5772 13.1481C11.0484 11.8569 9.99202 11.3592 8.59378 11.3592ZM38.2794 8.15371L39.0758 5.67918H30.5737C29.1589 5.67918 28.525 6.05262 28.2811 6.83074L27.4847 9.30527H35.9874C37.4017 9.30527 38.0355 8.93183 38.2794 8.15371ZM26.2164 12.5102L25.42 14.9847H33.9227C35.3203 14.9847 35.9708 14.6113 36.2147 13.8331L37.0111 11.3592H28.509C27.1108 11.3592 26.4763 11.7327 26.2164 12.5102ZM40.2628 2.48966L41.0599 0.0155489H32.5571C31.1423 0.0155489 30.5084 0.388998 30.2645 1.16699L29.4681 3.64109H37.9708C39.3691 3.64109 40.0029 3.26765 40.2628 2.48966ZM27.4194 2.98756C27.0621 0.684632 25.7779 0.0155489 22.6562 0.0155489H16.9659L13.6496 9.30527H15.7469C16.9986 9.30527 17.633 9.32058 18.2995 7.60885L19.6811 3.62554H21.7944C23.5992 3.62554 23.1927 5.78815 22.2823 7.88924C21.4692 9.74055 20.055 11.3745 18.3481 11.3745H14.8205C13.4057 11.3745 12.7558 11.748 12.4953 12.5261L11.6175 15H14.2027L16.7386 14.9847C18.982 14.9688 20.8194 14.8133 22.9654 12.9614C25.2414 10.9858 27.8746 5.91304 27.4194 2.98756ZM56 0H51.0742L46.4409 4.71471C45.9038 5.25921 45.3513 5.80407 44.8148 6.44199H44.7661L47.0747 0H43.0593L37.6456 14.9847H41.661L43.3839 10.2695L45.1726 8.82285L46.5869 13.0862C47.0254 14.4086 47.4813 14.9847 48.457 14.9847H51.5294L48.375 6.6128L56 0Z" fill="#D8D8D8"/>
</svg>
