<svg width="60" height="24" viewBox="0 0 60 24" fill="none" xmlns="http://www.w3.org/2000/svg">
<path d="M6.83177 24C7.41839 21.7872 8.00315 19.5762 8.59535 17.3449C8.33463 17.469 8.09067 17.5765 7.84299 17.671C6.91184 18.0232 5.9509 18.2215 4.95086 18.1974C3.89866 18.1714 2.91165 17.9157 2.03451 17.3189C1.01956 16.6295 0.401285 15.6713 0.133115 14.4852C-0.0829104 13.5252 -0.0251793 12.569 0.228092 11.6238C0.667592 9.98548 1.56522 8.62147 2.79991 7.47243C3.90611 6.44201 5.17992 5.7007 6.64368 5.29668C7.70891 5.00387 8.78717 4.92417 9.87475 5.15583C11.0219 5.40047 11.9866 5.95089 12.711 6.88309C13.2716 7.60587 13.5695 8.43614 13.6645 9.33869C13.7539 10.1838 13.6384 11.0066 13.415 11.8202C13.1133 12.9229 12.8228 14.0293 12.5285 15.1339C11.8935 17.5283 11.2752 19.9283 10.6178 22.3172C10.3589 23.2568 9.69038 23.8072 8.72385 23.9833C8.71268 23.9852 8.70337 23.9926 8.69219 23.9981C8.07391 24 7.45191 24 6.83177 24ZM3.48337 12.4652C3.4871 12.5282 3.4871 12.6283 3.50013 12.7265C3.61746 13.7032 4.12586 14.3796 5.06445 14.7151C5.5859 14.9004 6.12596 14.9115 6.6623 14.7984C7.95473 14.5242 8.93615 13.8032 9.6401 12.7024C10.0479 12.063 10.2658 11.3625 10.2211 10.5952C10.1615 9.58888 9.52464 8.7827 8.55811 8.4973C8.02736 8.33977 7.49102 8.33977 6.95654 8.46394C5.77957 8.73822 4.86147 9.39799 4.17801 10.3802C3.74968 10.9937 3.50013 11.6738 3.48337 12.4652Z" fill="#060606"/>
<path d="M43.4629 0.00185339C43.1686 1.11011 42.8763 2.21837 42.582 3.32477C42.556 3.34516 42.528 3.33589 42.5001 3.33589C41.9638 3.33589 41.4256 3.3396 40.8892 3.33589C40.5112 3.33404 40.1723 3.22099 39.9153 2.93188C39.6024 2.58161 39.5466 2.16462 39.6546 1.7254C39.798 1.14903 39.9581 0.574515 40.1108 0C41.2282 0 42.3455 1.13087e-07 43.4629 0.00185339Z" fill="#060606"/>
<path d="M60 5.07816C59.9273 5.2709 59.8864 5.47291 59.8342 5.67306C59.6983 6.1753 59.5679 6.6794 59.4357 7.18349C59.4245 7.22611 59.4078 7.25021 59.3556 7.24835C58.6461 7.2465 57.9347 7.2465 57.2252 7.2465C57.214 7.2465 57.2028 7.24279 57.1842 7.24094C57.3797 6.50148 57.5753 5.76758 57.7708 5.02441C58.5139 5.02441 59.2569 5.02441 60 5.02441C60 5.04109 60 5.05963 60 5.07816Z" fill="#060606"/>
<path d="M19.2702 18.2015C18.6091 18.1978 17.7152 18.0236 16.8902 17.5751C15.5754 16.8616 14.8045 15.7534 14.527 14.2985C14.3557 13.3997 14.4227 12.5083 14.6592 11.628C15.0875 10.0341 15.9498 8.69792 17.136 7.56186C18.1789 6.56479 19.3819 5.82904 20.7619 5.38796C21.5627 5.13221 22.3839 4.99877 23.2257 5.02657C24.317 5.06178 25.3338 5.34348 26.2258 5.99213C27.2333 6.72603 27.8199 7.7268 28.0397 8.94255C28.2427 10.0619 28.0955 11.1517 27.7119 12.2136C27.1551 13.7574 26.2072 15.0287 24.9557 16.0814C23.8905 16.9765 22.6894 17.6196 21.3355 17.968C20.7377 18.1237 20.1269 18.1997 19.2702 18.2015ZM17.9163 12.4638C17.9201 12.5268 17.9201 12.6269 17.9331 12.7251C18.0504 13.7018 18.557 14.3801 19.4937 14.7137C20.0151 14.9008 20.5552 14.912 21.0915 14.7989C22.3877 14.5246 23.3709 13.8018 24.0749 12.6973C24.4809 12.0598 24.6969 11.3611 24.6522 10.5975C24.5926 9.5912 23.9576 8.78502 22.991 8.49776C22.4603 8.34023 21.924 8.34023 21.3895 8.4644C20.2125 8.73869 19.2944 9.39846 18.6091 10.3788C18.1826 10.9923 17.9331 11.6724 17.9163 12.4638Z" fill="#060606"/>
<path d="M39.8555 18.2015C39.8462 18.1422 39.8891 18.1218 39.9151 18.0958C41.513 16.5242 43.1108 14.9527 44.7087 13.3829C45.2878 12.814 45.8652 12.245 46.4443 11.6779C46.4909 11.6316 46.5021 11.5982 46.4704 11.5352C45.4275 9.39839 44.3865 7.2597 43.3436 5.12102C43.3306 5.09322 43.3194 5.06542 43.3082 5.04133C43.3231 5.01909 43.3399 5.02465 43.3548 5.02465C43.9321 5.02465 44.5094 5.01909 45.0867 5.0265C45.6249 5.03392 46.1277 5.17476 46.5728 5.48797C46.8931 5.71407 47.1408 6.00318 47.3066 6.35716C47.7274 7.25785 48.1744 8.14743 48.6064 9.04256C48.6604 9.15376 48.7145 9.2631 48.7852 9.40766C49.0124 9.17044 49.2229 8.94434 49.4407 8.7275C50.208 7.96766 50.9846 7.21708 51.7463 6.44982C52.385 5.80859 53.1206 5.34341 54.0052 5.12473C54.2678 5.05986 54.5341 5.0228 54.806 5.0228C55.3647 5.02094 55.9234 5.0228 56.4821 5.0228C56.5007 5.0228 56.5174 5.0228 56.5491 5.0228C56.3871 5.18588 56.2362 5.33785 56.0835 5.48797C54.0276 7.50804 51.9735 9.52812 49.9175 11.5482C49.8709 11.5945 49.8635 11.6297 49.8933 11.6909C50.9306 13.8166 51.966 15.946 53.0033 18.0736C53.0219 18.1107 53.0536 18.1459 53.0238 18.1978C53.0052 18.1996 52.9828 18.2015 52.9623 18.2015C52.4037 18.2015 51.845 18.2107 51.2863 18.1996C50.5693 18.1848 49.9361 17.9568 49.4352 17.4249C49.262 17.2415 49.1335 17.0265 49.0255 16.8004C48.5562 15.8256 48.0831 14.8544 47.612 13.8815C47.6083 13.8741 47.6008 13.8666 47.5952 13.8574C47.5636 13.8592 47.5505 13.8852 47.5319 13.9037C46.5896 14.8304 45.6398 15.7496 44.7068 16.6855C44.2841 17.1099 43.8315 17.4861 43.2933 17.7567C42.6974 18.0551 42.0679 18.2144 41.3975 18.2052C40.8835 18.1941 40.3714 18.2015 39.8555 18.2015Z" fill="#060606"/>
<path d="M27.3691 18.1977C27.438 17.9364 27.5032 17.6844 27.5703 17.4305C27.7509 16.7485 27.9334 16.0665 28.1141 15.3845C28.2966 14.6969 28.4772 14.0075 28.6597 13.3199C28.9707 12.1431 29.2836 10.9662 29.5964 9.78941C29.7305 9.28346 29.8553 8.77381 30.0024 8.27157C30.2333 7.48578 30.6803 6.82787 31.2818 6.27559C31.9224 5.68625 32.6636 5.28223 33.5259 5.11173C33.6972 5.07837 33.8685 5.05613 34.0417 5.04872C35.2038 5.00053 36.3658 5.03945 37.5298 5.02833C37.5353 5.02833 37.5409 5.03019 37.5614 5.03575C37.2672 6.14215 36.9748 7.24856 36.6824 8.35312C36.6489 8.37165 36.6135 8.36238 36.5819 8.36238C36.0921 8.36238 35.6004 8.36238 35.1107 8.36238C34.1758 8.36609 33.5165 8.822 33.0566 9.60223C32.9094 9.85057 32.8592 10.1323 32.7865 10.4065C32.4792 11.5593 32.172 12.712 31.8666 13.8648C31.5388 15.1046 31.211 16.3445 30.8851 17.5843C30.8311 17.79 30.7753 17.9939 30.7194 18.1996C29.6039 18.1977 28.494 18.1977 27.3691 18.1977Z" fill="#060606"/>
<path d="M38.7811 5.02547C39.3808 5.02547 39.9711 5.00879 40.5615 5.02918C41.3343 5.05512 41.8483 5.68894 41.7366 6.45064C41.6826 6.82686 41.5597 7.18825 41.4628 7.55334C40.6546 10.6094 39.8426 13.6655 39.0325 16.7215C38.9077 17.1885 38.7848 17.6574 38.6601 18.1245C38.6545 18.1485 38.6452 18.1708 38.6396 18.1949C37.5222 18.1949 36.4085 18.1949 35.2893 18.1949C36.4532 13.8045 37.6153 9.41774 38.7811 5.02547Z" fill="#060606"/>
</svg>
